<svg width="649" height="71" viewBox="0 0 649 71" fill="none" xmlns="http://www.w3.org/2000/svg">
<path d="M420.976 55.6331C420.363 55.6594 419.743 55.6775 419.141 55.717C418.751 55.7417 418.584 55.6693 418.323 55.6314C418.236 55.6183 418.143 55.5919 418.063 55.5952C417.455 55.6216 416.848 55.6512 416.24 55.6808C416.054 55.745 415.937 55.8306 415.652 55.8619C415.373 55.8915 415.044 55.8915 414.734 55.9063C414.325 55.9244 413.916 55.9426 413.507 55.959C413.302 55.9673 413.135 55.9985 413.067 56.0578C413.054 56.0677 413.191 56.0923 413.265 56.1072C413.513 56.1565 413.755 56.2125 414.027 56.2504C414.288 56.2866 414.61 56.2273 414.889 56.2734C415.515 56.3771 415.521 56.3755 415.999 56.3557C416.408 56.3376 416.817 56.3179 417.226 56.3047C417.307 56.3014 417.4 56.3261 417.486 56.3393C417.747 56.3755 417.914 56.4578 418.298 56.4265C418.59 56.4018 418.912 56.3969 419.216 56.3837C419.47 56.4315 419.706 56.4858 419.978 56.5236C420.232 56.5599 420.307 56.5878 420.171 56.6356C420.047 56.68 419.873 56.6981 419.644 56.7014C419.439 56.7031 419.234 56.7179 419.03 56.7261C418.924 56.7311 418.825 56.7344 418.726 56.7393C418.336 56.7574 418.336 56.7574 417.623 56.652C417.344 56.6109 417.028 56.6685 416.761 56.629C416.581 56.6027 416.426 56.5632 416.253 56.5352C416.178 56.5237 416.061 56.522 415.968 56.5253C415.658 56.5368 415.348 56.545 415.05 56.5664C414.84 56.5813 414.716 56.6274 414.74 56.6734C414.747 56.6916 414.895 56.7179 414.982 56.7195C415.18 56.7228 415.391 56.6998 415.583 56.7113C415.769 56.7228 415.961 56.7557 416.098 56.792C416.377 56.8677 416.693 56.8002 416.959 56.82C417.238 56.8414 417.468 56.9072 417.734 56.9467C417.802 56.9566 417.933 56.9401 418.038 56.9352C418.342 56.9237 418.646 56.9138 418.949 56.9023C419.204 56.95 419.476 56.9928 419.706 57.0471C420.121 57.1459 420.567 57.1837 421.107 57.136C421.41 57.1097 421.708 57.1195 421.949 57.1837C422.197 57.2496 422.483 57.243 422.799 57.2298C423.09 57.2167 423.388 57.1805 423.685 57.2265C424.33 57.3286 424.336 57.3335 425.099 57.294C425.328 57.2825 425.501 57.2792 425.675 57.3171C425.836 57.3517 426.01 57.3813 426.177 57.4142C426.481 57.4027 426.791 57.3912 427.095 57.378C427.485 57.3599 427.702 57.3829 427.795 57.4751C427.851 57.5311 427.876 57.5821 428.012 57.62C428.173 57.6661 428.347 57.6644 428.582 57.6512C428.805 57.6397 428.967 57.6216 429.06 57.5624C429.097 57.5377 429.171 57.5146 429.239 57.4949C429.295 57.48 429.382 57.457 429.432 57.4603C429.525 57.4669 429.648 57.485 429.679 57.5064C429.983 57.7056 429.983 57.7072 430.293 57.7648C430.634 57.829 430.987 57.8866 431.297 57.9591C431.576 58.0233 431.855 57.9953 432.159 57.9953C432.388 57.9953 432.537 58.0381 432.519 58.0809C432.506 58.1056 432.419 58.1418 432.345 58.1451C431.737 58.178 431.124 58.206 430.51 58.229C430.436 58.2323 430.343 58.2027 430.256 58.1879C430.082 58.1582 429.927 58.1122 429.741 58.1023C429.556 58.0924 429.339 58.1171 429.134 58.1253C428.929 58.1336 428.713 58.155 428.527 58.1418C428.341 58.1286 428.192 58.0809 428.018 58.0496C427.938 58.0348 427.826 58.0134 427.758 58.0183C427.305 58.0578 426.971 58.0035 426.648 57.9311C426.58 57.9163 426.462 57.9064 426.376 57.9097C425.656 57.9377 424.944 57.9706 424.225 58.0019C423.933 58.015 423.698 57.9574 423.636 57.8603C423.605 57.806 423.543 57.7517 423.543 57.6973C423.543 57.5986 423.202 57.5442 422.954 57.5558C422.545 57.5722 422.129 57.5854 421.726 57.6101C421.398 57.6298 421.119 57.6101 420.896 57.5508C420.635 57.4833 420.338 57.4965 420.04 57.5146C419.817 57.5278 419.755 57.5821 419.767 57.7187C419.78 57.829 419.674 57.8636 419.272 57.8817C418.763 57.9047 418.249 57.9278 417.734 57.9459C417.654 57.9492 417.561 57.9212 417.48 57.9064C417.307 57.8768 417.152 57.829 416.966 57.8191C416.78 57.8076 416.563 57.8323 416.358 57.8422C416.154 57.8504 415.937 57.8735 415.751 57.8619C415.565 57.8504 415.41 57.8011 415.242 57.7698C415.162 57.755 415.063 57.7335 414.982 57.7368C414.573 57.75 414.164 57.7698 413.755 57.7879C413.296 57.8076 413.296 57.8076 412.645 57.7056C412.347 57.6595 412.05 57.6957 411.759 57.7089C411.449 57.722 411.157 57.7286 410.916 57.6628C410.754 57.62 410.575 57.5936 410.383 57.6019C409.868 57.6216 409.36 57.6463 408.845 57.6661C408.758 57.6694 408.641 57.6611 408.572 57.6463C408.244 57.5772 407.922 57.5228 407.463 57.5574C407.066 57.587 406.638 57.5887 406.242 57.6167C406.025 57.6315 405.925 57.6842 405.969 57.7253C405.994 57.7467 406.124 57.7714 406.211 57.7714C406.409 57.7731 406.626 57.7484 406.812 57.7582C407.196 57.778 407.388 57.9163 407.891 57.8784C408.188 57.8554 408.498 57.8471 408.808 57.8405C408.889 57.8389 408.975 57.8702 409.062 57.8866C409.31 57.9311 409.527 57.9887 409.887 57.9591C410.184 57.936 410.5 57.9295 410.804 57.9163C411.288 57.8949 411.288 57.8965 411.914 57.9969C412.211 58.0447 412.509 58.0068 412.8 57.9953C413.017 57.9871 413.221 57.9706 413.395 57.9936C413.662 58.0282 413.854 58.1072 414.182 58.1023C414.492 58.0973 414.796 58.0743 415.106 58.0661C415.298 58.0611 415.478 58.0875 415.633 58.1319C415.794 58.1764 415.968 58.1961 416.178 58.1862C416.482 58.1731 416.792 58.1566 417.102 58.1484C417.189 58.1467 417.288 58.1615 417.369 58.1747C417.542 58.2043 417.709 58.2389 417.877 58.2702C418.181 58.2603 418.491 58.257 418.788 58.2373C419.018 58.2225 419.179 58.229 419.365 58.262C419.6 58.3064 419.792 58.3854 420.177 58.3476C420.369 58.3295 420.592 58.3344 420.784 58.3179C421.02 58.2965 421.181 58.3048 421.348 58.3541C421.664 58.448 422.061 58.4496 422.47 58.4134C422.917 58.3739 423.251 58.42 423.586 58.4924C423.939 58.5682 423.939 58.5665 424.212 58.7492C424.293 58.8019 424.522 58.8266 424.714 58.8167C425.036 58.8003 425.316 58.8085 425.551 58.871C425.799 58.9385 426.096 58.9303 426.4 58.9122C426.803 58.8875 427.206 58.8661 427.535 58.9616C427.696 59.0077 427.87 59.0192 428.086 59.0077C428.7 58.978 429.32 58.9599 429.921 58.9237C430.287 58.9007 430.498 58.9533 430.746 58.9978C431.08 59.0587 431.446 59.113 431.446 59.2431C431.446 59.2645 431.533 59.2891 431.607 59.3056C431.769 59.3402 431.942 59.3698 432.109 59.4027C432.357 59.4521 432.599 59.4933 432.94 59.4669C433.238 59.4455 433.554 59.4389 433.857 59.4241C434.161 59.4093 434.44 59.4011 434.713 59.4636C435.029 59.5344 435.364 59.6019 435.723 59.6546C435.977 59.6924 436.312 59.6283 436.585 59.6793C436.752 59.7106 436.913 59.7468 437.093 59.7731C437.168 59.7846 437.286 59.7764 437.385 59.7731C437.589 59.7665 437.8 59.7616 437.998 59.7451C438.228 59.727 438.401 59.7303 438.575 59.7682C438.736 59.8028 438.897 59.8505 439.083 59.8604C439.362 59.8752 439.672 59.8093 439.951 59.8851C440.094 59.9229 440.273 59.9591 440.459 59.9707C440.645 59.9822 440.862 59.9575 441.061 59.9591C441.147 59.9591 441.253 59.9855 441.302 60.0069C441.333 60.0184 441.29 60.0497 441.247 60.0661C441.191 60.0859 441.11 60.1122 441.03 60.1155C440.416 60.1451 439.802 60.1698 439.189 60.1978C438.823 60.2143 438.823 60.2143 438.085 60.1106C437.912 60.0859 437.719 60.0908 437.502 60.1023C437.211 60.1171 436.914 60.1451 436.61 60.1155C436.213 60.0036 435.723 59.9937 435.203 60.0365C434.986 60.0546 434.787 60.0546 434.626 60.0233C434.285 59.9608 433.926 59.9032 433.622 59.8291C433.386 59.7715 433.275 59.7665 433.176 59.8455C433.145 59.8702 433.114 59.8966 433.12 59.9196C433.157 60.0019 433.225 60.0826 433.262 60.1649C433.275 60.1879 433.225 60.2143 433.194 60.239C433.095 60.3081 432.965 60.3032 432.748 60.2455C432.531 60.1879 432.271 60.1501 431.923 60.1764C431.626 60.1995 431.304 60.1962 431.006 60.2209C430.547 60.2571 430.225 60.2044 429.896 60.1336C429.828 60.1188 429.711 60.1106 429.624 60.1139C428.7 60.1517 427.783 60.1945 426.859 60.2324C426.661 60.2406 426.481 60.2159 426.326 60.1715C426.165 60.127 425.985 60.104 425.787 60.1122C424.968 60.1468 424.15 60.1781 423.332 60.2209C422.997 60.239 422.731 60.2176 422.501 60.1599C422.328 60.1171 422.166 60.104 421.949 60.1089C421.714 60.1139 421.547 60.1303 421.429 60.1781C421.317 60.2242 421.398 60.2521 421.646 60.2883C421.912 60.3279 422.16 60.3789 422.414 60.425C422.619 60.4184 422.824 60.4052 423.022 60.4069C423.109 60.4069 423.189 60.4365 423.276 60.453C423.524 60.5007 423.753 60.5484 424.107 60.5221C424.404 60.4991 424.72 60.4941 425.024 60.4793C425.446 60.4612 425.446 60.4612 426.128 60.5649C426.301 60.5912 426.487 60.5896 426.71 60.5748C426.902 60.5632 427.101 60.5863 427.237 60.6357C427.293 60.6554 427.274 60.6884 427.157 60.797C427.157 60.8777 427.287 60.8415 427.33 60.7888C427.398 60.7131 427.268 60.6884 427.02 60.7295C426.847 60.7591 426.76 60.802 426.803 60.8365C426.828 60.8546 426.946 60.8777 427.157 60.797C427.702 60.6982 428.117 60.6867 428.514 60.6604C428.75 60.6456 428.898 60.6521 429.084 60.6949C429.308 60.746 429.531 60.8003 429.896 60.774C430.293 60.7443 430.715 60.741 431.118 60.7163C431.49 60.6933 431.682 60.7657 431.917 60.8085C432.202 60.8596 432.519 60.8019 432.779 60.8316C433.052 60.8612 433.244 60.9336 433.56 60.9468C434.019 60.9024 434.31 60.9847 434.657 61.039C434.93 61.0801 435.252 61.0439 435.544 61.0258C435.872 61.0061 436.145 61.0242 436.374 61.0834C436.635 61.1509 436.926 61.1361 437.224 61.1213C437.918 61.0884 437.943 61.0834 438.345 61.174C438.637 61.2398 438.916 61.2102 439.207 61.202C439.461 61.2464 439.709 61.2941 439.976 61.3336C440.044 61.3435 440.174 61.3271 440.28 61.3221C440.583 61.309 440.893 61.2958 441.197 61.2826C441.402 61.2744 441.618 61.2497 441.804 61.2596C441.99 61.2711 442.145 61.3188 442.313 61.3501C442.48 61.3814 442.654 61.4127 442.815 61.4456C443.063 61.495 443.298 61.5361 443.645 61.5114C443.943 61.49 444.253 61.4834 444.563 61.4686C444.953 61.4505 444.941 61.4555 445.666 61.5542C446.057 61.6086 446.46 61.5427 446.856 61.5361C447.055 61.5328 447.247 61.5509 447.383 61.5987C447.439 61.6184 447.421 61.6514 447.439 61.6793C446.416 61.7238 445.387 61.7616 444.377 61.816C443.986 61.8374 443.782 61.7781 443.571 61.7287C443.224 61.6497 442.765 61.7649 442.437 61.6629C442.238 61.602 441.953 61.5674 441.612 61.597C441.414 61.6135 441.203 61.6118 440.999 61.6267C440.478 61.6629 440.001 61.6645 439.585 61.5509C439.443 61.5114 439.238 61.49 439.089 61.4522C438.916 61.411 438.748 61.388 438.544 61.3962C437.62 61.4357 436.703 61.4752 435.785 61.518C435.705 61.5213 435.624 61.546 435.556 61.5641C435.382 61.6102 435.438 61.6464 435.717 61.676C435.81 61.6859 435.885 61.7073 435.971 61.7238C436.139 61.755 436.294 61.8044 436.48 61.816C436.666 61.8275 436.883 61.8044 437.087 61.7962C437.292 61.788 437.509 61.7633 437.695 61.7732C437.881 61.7847 438.036 61.8324 438.209 61.8621C438.29 61.8769 438.389 61.9016 438.47 61.8999C438.879 61.89 439.282 61.8719 439.691 61.8571C439.945 61.9016 440.162 61.9658 440.466 61.9806C440.658 61.9905 440.862 61.9723 441.061 61.9756C441.147 61.9773 441.259 62.002 441.302 62.0234C441.327 62.0365 441.247 62.0695 441.185 62.0859C440.949 62.1485 440.627 62.1369 440.335 62.1567C440.019 62.1781 439.734 62.1715 439.492 62.1073C439.331 62.0645 439.151 62.0415 438.953 62.0497C438.438 62.0711 437.93 62.0958 437.416 62.1139C437.329 62.1172 437.223 62.1024 437.143 62.0909C436.492 61.9905 436.492 61.9872 436.033 62.0086C435.358 62.0398 435.358 62.0398 434.905 61.9526C434.818 61.9361 434.725 61.9049 434.651 61.9065C433.932 61.9328 433.219 61.9592 432.506 61.997C432.271 62.0086 432.109 62.0086 431.936 61.9658C431.787 61.9296 431.614 61.8884 431.428 61.8785C431.235 61.8686 431.025 61.8933 430.82 61.9016C430.616 61.9098 430.399 61.9312 430.219 61.918C430.033 61.9049 429.872 61.8588 429.71 61.8258C429.543 61.7913 429.363 61.7929 429.134 61.8061C428.427 61.8439 428.421 61.839 427.721 61.7369C427.64 61.7254 427.535 61.7123 427.448 61.7155C426.933 61.7353 426.425 61.76 425.911 61.7798C425.712 61.788 425.52 61.7666 425.384 61.7188C425.328 61.6991 425.347 61.6662 425.309 61.602C425.266 61.5871 425.315 61.6135 425.328 61.6382C425.421 61.6349 425.533 61.6382 425.601 61.625C425.774 61.5937 425.861 61.5526 425.818 61.518C425.793 61.4999 425.675 61.4768 425.601 61.4768C425.464 61.4768 425.347 61.5131 425.309 61.602C424.919 61.6563 424.503 61.6678 424.1 61.6941C423.865 61.7106 423.716 61.7024 423.53 61.6596C423.307 61.6069 423.078 61.5559 422.712 61.5822C422.315 61.6118 421.894 61.6168 421.485 61.6398C421.013 61.6662 420.809 61.518 420.412 61.5213C420.003 61.5246 419.594 61.5526 419.185 61.5723C418.825 61.5888 418.825 61.5888 418.081 61.4818C417.809 61.4423 417.486 61.4999 417.22 61.4587C417.04 61.4324 416.885 61.3929 416.712 61.3649C416.637 61.3534 416.519 61.3534 416.426 61.3567C415.912 61.3764 415.391 61.3896 414.895 61.4258C414.331 61.4686 413.903 61.4225 413.501 61.3254C412.992 61.3435 412.478 61.3534 411.976 61.3847C411.61 61.4077 411.399 61.3534 411.151 61.309C411.064 61.2941 410.99 61.2694 410.897 61.2629C410.804 61.2563 410.692 61.2694 410.593 61.2744C410.184 61.2925 409.763 61.3007 409.366 61.3304C408.876 61.3682 408.69 61.2332 408.312 61.2168C408.058 61.2974 407.922 61.4077 407.419 61.4159C407.01 61.4225 406.601 61.4489 406.192 61.467C405.988 61.4752 405.783 61.4851 405.578 61.4933C405.25 61.5081 405.095 61.5723 405.163 61.6711C405.2 61.7254 405.231 61.7797 405.262 61.8341C405.324 61.9312 405.169 62.0135 404.909 62.025C404.19 62.0563 403.477 62.0892 402.758 62.1172C402.566 62.1254 402.38 62.0974 402.225 62.053C402.064 62.0086 401.884 61.9888 401.685 61.997C400.966 62.0283 400.254 62.0612 399.535 62.0892C399.454 62.0925 399.349 62.0761 399.268 62.0629C399.094 62.0333 398.927 61.9987 398.76 61.9674C398.351 61.9822 397.948 61.9921 397.545 62.0118C396.894 62.0415 396.894 62.0431 396.416 61.9526C396.33 61.9361 396.243 61.9049 396.162 61.9065C395.852 61.9131 395.549 61.9296 395.239 61.9444C394.328 61.9872 394.327 61.9872 394.061 61.9378C393.819 61.8917 393.602 61.8357 393.236 61.8621C392.84 61.8917 392.418 61.9016 392.009 61.918C391.705 61.9295 391.402 61.9427 391.098 61.946C391.017 61.9477 390.931 61.9164 390.844 61.8999C390.596 61.8489 390.354 61.8077 390.013 61.8357C389.815 61.8522 389.604 61.8555 389.399 61.8637C388.866 61.8868 388.866 61.8867 387.992 61.788C387.905 61.7781 387.8 61.7666 387.713 61.7715C386.994 61.8011 386.281 61.8341 385.562 61.8621C385.475 61.8654 385.37 61.8555 385.283 61.8472C384.304 61.7518 384.304 61.7518 383.263 61.7979C382.866 61.8143 382.853 61.8209 382.438 61.7337C382.252 61.6958 382.097 61.6777 381.88 61.6892C381.062 61.7287 380.238 61.7551 379.425 61.8012C379.06 61.8209 378.849 61.7715 378.601 61.7271C378.514 61.7122 378.421 61.6793 378.347 61.681C377.529 61.7123 376.71 61.7501 375.892 61.7814C375.818 61.7847 375.725 61.7518 375.638 61.7369C375.471 61.7073 375.309 61.6629 375.123 61.653C374.931 61.6431 374.72 61.6678 374.51 61.676C373.995 61.6974 373.995 61.6958 373.4 61.5987C373.319 61.5855 373.214 61.5674 373.134 61.5707C372.315 61.6036 371.491 61.6316 370.679 61.6793C370.214 61.7057 369.898 61.6579 369.569 61.5888C369.501 61.574 369.383 61.5674 369.297 61.5707C368.373 61.6086 367.455 61.6513 366.532 61.6892C366.34 61.6974 366.154 61.6695 365.999 61.6267C365.751 61.5592 365.459 61.5674 365.15 61.5822C364.437 61.6168 364.43 61.6151 364.009 61.5361C363.922 61.5197 363.848 61.4983 363.755 61.49C363.668 61.4818 363.556 61.4867 363.463 61.49C363.054 61.5065 362.645 61.5246 362.236 61.5427C361.827 61.5608 361.411 61.5707 361.009 61.5987C360.513 61.6332 360.277 61.5262 359.93 61.4768C359.422 61.4982 358.901 61.5114 358.399 61.546C358.015 61.5723 357.835 61.4999 357.581 61.462C357.494 61.4489 357.401 61.4209 357.32 61.4242C356.397 61.4604 355.473 61.4999 354.556 61.5443C354.332 61.5542 354.184 61.5411 353.998 61.5015C353.582 61.4127 353.564 61.416 352.87 61.4489C352.566 61.4637 352.274 61.4769 352.014 61.4094C351.785 61.3485 351.506 61.3336 351.177 61.3534C350.774 61.3781 350.359 61.3913 349.95 61.4077C349.541 61.4258 349.132 61.4505 348.723 61.4587C348.394 61.467 348.196 61.3896 347.935 61.3501C347.855 61.3386 347.743 61.3369 347.65 61.3402C347.241 61.355 346.82 61.3666 346.423 61.3945C345.939 61.4291 345.673 61.3386 345.332 61.2859C345.257 61.2744 345.133 61.281 345.04 61.2859C344.321 61.3155 343.608 61.3485 342.889 61.3797C342.635 61.3353 342.375 61.2925 342.121 61.2481C341.712 61.2645 341.302 61.2826 340.893 61.2991C340.583 61.3122 340.267 61.3172 339.976 61.3419C339.598 61.3748 339.412 61.2974 339.158 61.2596C339.071 61.2464 338.978 61.2184 338.897 61.2217C338.383 61.2398 337.868 61.2596 337.36 61.2876C336.876 61.3155 336.684 61.1674 336.288 61.169C335.879 61.1707 335.457 61.1921 335.06 61.2217C334.602 61.2563 334.279 61.2036 333.951 61.1328C333.882 61.118 333.765 61.1098 333.678 61.1131C333.163 61.1328 332.655 61.1575 332.141 61.1773C332.054 61.1806 331.948 61.1723 331.862 61.1625C330.882 61.0653 330.882 61.0637 330.455 61.0834C330.151 61.0966 329.841 61.1131 329.531 61.1213C329.444 61.1246 329.339 61.1098 329.258 61.0966C328.613 60.9962 328.613 60.9945 328.148 61.0143C327.739 61.0324 327.33 61.0505 326.921 61.0686C326.667 61.0242 326.407 60.9814 326.152 60.9369C325.644 60.9583 325.123 60.9748 324.621 61.0044C324.386 61.0176 324.231 61.0126 324.051 60.9715C323.828 60.9221 323.605 60.8645 323.233 60.8925C322.836 60.9221 322.415 60.9254 322.012 60.9501C321.528 60.9797 321.33 60.8299 320.939 60.8316C320.53 60.8332 320.109 60.8546 319.712 60.8842C319.253 60.9188 318.931 60.8662 318.602 60.7954C318.534 60.7806 318.416 60.7723 318.33 60.7756C317.201 60.8234 316.079 60.8711 314.951 60.9221C314.257 60.9534 314.257 60.955 312.937 60.8645C312.844 60.8579 312.744 60.8513 312.651 60.8546C312.242 60.8694 311.821 60.881 311.424 60.9089C310.94 60.9435 310.674 60.8546 310.333 60.8003C310.259 60.7888 310.141 60.7954 310.042 60.7986C309.732 60.8102 309.428 60.825 309.118 60.8382C308.709 60.8563 308.3 60.8744 307.891 60.8925C307.637 60.8497 307.376 60.8052 307.122 60.7624C306.614 60.7838 306.093 60.7954 305.591 60.8299C305.207 60.8563 305.027 60.7871 304.773 60.7476C304.686 60.7345 304.593 60.7065 304.512 60.7081C303.589 60.7443 302.665 60.7822 301.748 60.8283C301.37 60.848 301.196 60.774 300.942 60.7361C300.855 60.7246 300.756 60.7032 300.675 60.7065C300.062 60.7295 299.448 60.7575 298.834 60.7855C298.487 60.8019 298.487 60.8019 297.731 60.6999C297.644 60.6884 297.545 60.6768 297.458 60.6801C295.512 60.7624 293.571 60.8497 291.625 60.932C291.427 60.9402 291.247 60.9155 291.092 60.8711C290.931 60.8266 290.751 60.8036 290.552 60.8118C289.734 60.8464 288.91 60.8777 288.098 60.9205C287.763 60.9386 287.496 60.9172 287.267 60.8595C287.094 60.8167 286.932 60.8003 286.715 60.8102C286.306 60.8299 285.897 60.8464 285.488 60.8645C285.079 60.8826 284.67 60.9007 284.261 60.9188C283.852 60.9369 283.436 60.9468 283.033 60.9748C282.537 61.0094 282.296 60.9073 281.955 60.8563C281.341 60.881 280.727 60.9057 280.12 60.932C279.302 60.9666 278.483 61.0044 277.665 61.0373C277.591 61.0406 277.498 61.011 277.411 60.9962C277.157 60.955 276.971 60.8974 276.593 60.9155C274.758 61.0028 272.911 61.0769 271.07 61.1625C270.685 61.1806 270.518 61.1098 270.257 61.0719C270.171 61.0604 270.072 61.0373 269.991 61.0406C268.968 61.0818 267.945 61.1279 266.923 61.1723C266.507 61.1904 266.507 61.1904 265.813 61.0884C265.732 61.0768 265.627 61.062 265.54 61.0653C264.207 61.1213 262.881 61.1806 261.548 61.2382C261.35 61.2464 261.17 61.2234 261.009 61.1789C260.854 61.1345 260.668 61.1098 260.476 61.118C259.248 61.1707 258.015 61.2217 256.794 61.2793C256.465 61.2958 256.192 61.281 255.957 61.2217C255.789 61.1789 255.622 61.1608 255.411 61.1707C253.57 61.2513 251.729 61.3287 249.888 61.4143C249.535 61.4308 249.287 61.3995 249.064 61.3452C248.884 61.3024 248.729 61.2941 248.506 61.3007C248.27 61.309 248.128 61.3271 247.997 61.3764C247.83 61.4406 247.725 61.5213 247.328 61.5262C246.919 61.5312 246.503 61.5509 246.101 61.5789C245.716 61.6069 245.536 61.5328 245.295 61.4884C245.115 61.4571 244.948 61.4522 244.718 61.467C244.507 61.4802 244.377 61.5081 244.253 61.5608C243.981 61.6727 243.956 61.6727 243.621 61.602C243.441 61.5641 243.28 61.5345 243.082 61.541C242.263 61.574 241.445 61.6102 240.627 61.6481C240.156 61.6695 240.15 61.6727 239.796 61.5904C239.623 61.5493 239.455 61.5295 239.251 61.5394C237.001 61.6382 234.751 61.7337 232.5 61.8374C232.153 61.8538 231.918 61.8193 231.67 61.7699C231.589 61.7534 231.508 61.7304 231.416 61.7238C231.323 61.7172 231.217 61.7238 231.118 61.7271C229.481 61.7978 227.839 61.8654 226.208 61.9444C225.836 61.9625 225.638 61.9098 225.384 61.867C225.297 61.8522 225.223 61.8291 225.13 61.8226C225.037 61.8176 224.925 61.8291 224.826 61.8341C223.19 61.9049 221.547 61.9724 219.917 62.0514C219.526 62.0695 219.359 62.0003 219.105 61.9641C219.018 61.9509 218.925 61.9262 218.844 61.9295C218.33 61.9476 217.821 61.9723 217.307 61.9937C216.08 62.0481 214.852 62.0991 213.625 62.1551C213.154 62.1765 212.949 62.03 212.552 62.0365C212.038 62.0448 211.53 62.0777 211.015 62.1007C210.606 62.1188 210.197 62.1353 209.788 62.1551C209.385 62.1732 209.385 62.1732 208.38 62.0777C208.294 62.0695 208.188 62.0579 208.102 62.0612C206.67 62.1221 205.232 62.1831 203.806 62.2489C203.477 62.2637 203.204 62.2555 202.969 62.1946C202.802 62.1518 202.628 62.1304 202.423 62.1402C200.272 62.2341 198.128 62.3279 195.977 62.4201C195.896 62.4234 195.791 62.4069 195.71 62.3938C195.537 62.3641 195.369 62.3296 195.202 62.2983C195.078 62.3361 194.917 62.3707 194.836 62.4135C194.725 62.4711 194.576 62.4876 194.34 62.4975C194.105 62.5073 193.956 62.5041 193.77 62.4613C193.547 62.4086 193.317 62.3674 192.952 62.3839C190.701 62.4876 188.451 62.5814 186.201 62.6835C185.829 62.6999 185.656 62.6275 185.395 62.5896C185.308 62.5781 185.209 62.56 185.129 62.5633C184.205 62.6012 183.288 62.6423 182.364 62.6818C179.804 62.7938 177.244 62.9008 174.69 63.0193C174.225 63.0407 173.909 62.9995 173.58 62.9287C173.512 62.9139 173.394 62.9057 173.308 62.909C169.725 63.0637 166.142 63.2201 162.565 63.3765C162.373 63.3847 162.187 63.3584 162.032 63.3156C161.871 63.2711 161.691 63.2497 161.492 63.258C159.856 63.3288 158.22 63.3996 156.583 63.472C156.174 63.4901 156.168 63.4917 155.746 63.4127C155.659 63.3962 155.566 63.365 155.498 63.3683C155.356 63.3765 155.219 63.4176 155.12 63.4736C155.021 63.5329 154.866 63.5493 154.636 63.5609C154.401 63.5724 154.246 63.5675 154.066 63.5279C153.837 63.4786 153.626 63.4308 153.254 63.4473C148.549 63.658 143.844 63.8604 139.139 64.0695C138.761 64.086 138.588 64.0168 138.327 63.979C138.24 63.9675 138.154 63.951 138.061 63.9477C137.962 63.9444 137.856 63.9543 137.757 63.9592C130.083 64.2934 122.409 64.6292 114.735 64.9634C114.276 64.9831 114.282 64.9831 113.78 65.1346C113.718 65.1527 113.637 65.1774 113.55 65.1806C111.201 65.286 108.846 65.3881 106.49 65.4901C105.467 65.5346 104.444 65.5807 103.422 65.6235C103.056 65.6383 103.056 65.6383 102.182 65.8161C102.108 65.8309 102.021 65.8506 101.934 65.8539C97.8426 66.0334 93.7513 66.2128 89.6539 66.3889C89.3316 66.4021 89.0713 66.4317 88.9225 66.5107C88.8171 66.5667 88.6807 66.5996 88.4762 66.6095C85.6123 66.7346 82.7485 66.8614 79.8784 66.9832C79.5375 66.998 79.3329 67.0441 79.1655 67.1132C79.1097 67.1363 79.0601 67.1626 78.9795 67.1791C78.9051 67.1939 78.7936 67.1988 78.7006 67.2038C76.2458 67.3108 73.7912 67.4211 71.3302 67.5231C70.9645 67.5379 70.8156 67.5988 70.6359 67.663C70.5739 67.6844 70.5305 67.7141 70.4499 67.7289C70.3693 67.742 70.2515 67.742 70.1523 67.7453C68.1067 67.8342 66.0612 67.9248 64.0155 68.0137C63.6188 68.0054 63.532 68.1009 63.3398 68.1585C63.2716 68.1783 63.2221 68.2046 63.1416 68.2178C63.0548 68.2309 62.943 68.2293 62.8377 68.2326C61.2012 68.3034 59.5647 68.3791 57.922 68.4449C57.5439 68.4598 57.4695 68.5437 57.2649 68.6013C57.1967 68.6194 57.1286 68.6474 57.048 68.6524C56.0252 68.7001 55.0024 68.7445 53.9796 68.7873C53.6387 68.8021 53.6387 68.8005 53.0374 68.9635C52.9692 68.9816 52.8885 69.0013 52.8018 69.0063C51.2706 69.0754 49.7334 69.1413 48.1961 69.2087C47.9977 69.217 47.8614 69.2565 47.7622 69.3125C47.663 69.3684 47.5204 69.4046 47.3221 69.4129C46.0947 69.4672 44.8672 69.5232 43.6398 69.5725C43.2989 69.5857 43.0758 69.6269 42.927 69.7009C42.8155 69.7569 42.6791 69.7849 42.4621 69.7948C41.2348 69.8474 40.0074 69.9051 38.7738 69.9512C38.4143 69.9643 38.2283 70.0203 38.0795 70.0894C37.9617 70.1454 37.8253 70.1652 37.596 70.175C35.3458 70.2705 33.0895 70.366 30.8455 70.4713C30.4674 70.4894 30.2751 70.4318 30.0272 70.3907C29.6739 70.333 29.3454 70.2705 29.3454 70.1421C29.3454 70.1223 29.24 70.0993 29.1656 70.0828C28.6139 69.9594 28.6139 69.9594 28.5271 69.8277C28.4775 69.747 28.4217 69.6647 28.3784 69.5824C28.2978 69.4474 28.0993 69.4129 27.529 69.4376C27.3245 69.4458 27.1199 69.4573 26.9154 69.4639C26.6116 69.4754 26.3823 69.4211 26.3265 69.3223C26.2955 69.268 26.2584 69.2137 26.2274 69.1594C26.5373 69.1462 26.531 69.1446 27.0765 68.9454C27.3059 68.8614 27.306 68.8614 26.8659 68.7775C26.6985 68.7462 26.5373 68.7116 26.3575 68.682C26.2769 68.6688 26.1716 68.6606 26.0848 68.6639C25.5703 68.6836 25.062 68.7067 24.5537 68.7297C23.7355 68.7659 23.7354 68.7659 22.9047 68.598C22.8365 68.5849 22.7311 68.5602 22.7435 68.547C22.8117 68.4861 22.9791 68.4597 23.1898 68.4532C23.4998 68.4433 23.8035 68.4268 24.1073 68.4137C24.3118 68.4054 24.5164 68.3956 24.7209 68.3873C24.9131 68.3248 25.1116 68.2639 25.2913 68.1997C25.5765 68.1009 25.5764 68.0976 25.1859 68.0285C24.9379 67.9824 24.6714 67.9412 24.4172 67.8984C24.1135 67.9116 23.8035 67.9264 23.4998 67.9379C23.1155 67.9527 22.9605 67.9215 22.8613 67.8145C22.7745 67.7206 22.8799 67.64 23.1774 67.6202C23.4812 67.6005 23.7664 67.5873 23.9214 67.5034C24.0702 67.4227 24.3305 67.3914 24.6528 67.3848C24.8574 67.3799 25.062 67.3684 25.2665 67.3585C25.5331 67.3453 25.6757 67.2614 25.6199 67.1675C25.5889 67.1066 25.5269 67.0556 25.2851 67.0424C24.2127 66.9848 24.2003 66.9865 23.6672 66.8745C23.6176 66.8646 23.5805 66.835 23.5991 66.8202C23.6301 66.7955 23.6983 66.7593 23.7727 66.7544C24.4855 66.7181 25.1984 66.6852 25.9112 66.6605C26.1468 66.6523 26.3204 66.6408 26.401 66.5799C26.5125 66.4959 26.4629 66.4185 26.246 66.3609C26.1778 66.3428 26.0661 66.3198 25.9917 66.3214C25.1735 66.3511 24.3615 66.3889 23.5432 66.4185C23.4688 66.4218 23.3325 66.3939 23.3015 66.3725C23.2395 66.333 23.3325 66.2803 23.5494 66.2622C23.8346 66.2375 24.1259 66.2358 24.3181 66.1535C24.5846 66.0366 24.9131 65.9297 25.2107 65.8177C25.2603 65.798 25.341 65.7601 25.3224 65.7568C25.1674 65.7206 24.9876 65.6926 24.8264 65.658C24.5537 65.6004 24.5536 65.5198 24.6156 65.4424C24.6652 65.3798 24.8512 65.3551 25.0805 65.3551C25.1797 65.3551 25.3037 65.3552 25.3843 65.3403C25.595 65.3041 25.6632 65.258 25.5578 65.2234C25.4959 65.2037 25.3843 65.1757 25.31 65.179C23.9834 65.2333 22.6505 65.286 21.3302 65.3535C20.9397 65.3733 20.76 65.3107 20.5245 65.2663C20.3447 65.2317 20.1772 65.2185 19.9541 65.2432C19.7433 65.2662 19.5388 65.2531 19.4086 65.1988C19.3033 65.1543 19.4892 65.1165 19.9913 65.0737C20.0843 65.0654 20.1896 65.0605 20.2578 65.044C20.9769 64.8662 20.9768 64.8646 21.4728 64.8416C21.9563 64.8202 21.9564 64.8185 22.2105 64.723C22.3283 64.6786 22.4584 64.6341 22.57 64.588C22.6134 64.5699 22.6878 64.537 22.663 64.5271C22.5267 64.4761 22.3406 64.4646 22.1237 64.4761C21.6402 64.5041 21.0699 64.4811 20.8158 64.6374C20.7166 64.6967 20.5616 64.7132 20.3385 64.723C18.0945 64.8185 15.8504 64.9206 13.6002 65.0128C13.2345 65.0276 13.0672 65.0885 12.9247 65.156C12.8007 65.2119 12.6643 65.2284 12.4287 65.2383C12.1932 65.2482 12.0071 65.2531 11.8707 65.1988C11.7902 65.1658 11.8584 65.1198 12.0443 65.0737C12.3109 65.0078 12.2613 64.9255 12.1745 64.8481C12.1125 64.7971 11.9203 64.7609 11.7158 64.7642C11.412 64.7708 11.1208 64.7889 10.8666 64.723C10.7178 64.6852 10.5318 64.6588 10.3645 64.6259C10.0421 64.5584 9.71977 64.4893 9.26725 64.5337C8.95731 64.5173 8.74035 64.458 8.49239 64.4119C8.07707 64.3362 8.03988 64.3247 8.33742 64.244C8.67216 64.1535 8.41176 64.0349 8.59773 63.946C8.79609 63.8506 9.06893 63.7666 9.31069 63.6777C9.37267 63.6547 9.42849 63.6333 9.49048 63.6103C9.3479 63.5773 9.21775 63.5362 9.05038 63.5131C8.83342 63.4835 8.72184 63.4473 8.73423 63.3452C8.69084 63.3304 8.70931 63.3683 8.7589 63.3781C8.81469 63.388 8.95117 63.3798 9.01936 63.3683C9.19293 63.337 9.27962 63.2958 9.23623 63.2613C9.21143 63.2432 9.09374 63.2201 9.01936 63.2201C8.88298 63.2201 8.76522 63.2563 8.72803 63.3452C8.03376 63.4127 7.31458 63.4456 6.59551 63.472C6.52112 63.4753 6.4282 63.4423 6.34141 63.4259C6.05626 63.3699 6.05623 63.3716 5.21938 63.3551C5.1326 63.3534 5.01488 63.3304 4.97149 63.3074C4.79172 63.207 4.79797 63.0967 4.71119 62.9897C4.87236 62.9205 5.0334 62.853 5.20077 62.7855C5.53551 62.6489 5.96952 62.5287 6.22987 62.3789C6.17409 62.2983 6.09969 62.2176 6.37244 62.1518C7.14729 62.0695 7.14114 62.0695 7.3519 61.9905C7.95319 61.7666 8.54824 61.5411 9.17433 61.3205C9.3417 61.2629 9.34172 61.2316 9.04418 61.2069C8.95119 61.2003 8.85188 61.1987 8.7527 61.202C8.44276 61.2135 8.13282 61.2431 7.82908 61.2365C7.52533 61.2316 7.30217 61.1592 7.05422 61.1147C6.80007 61.0686 6.54593 61.0209 6.29177 60.9731C6.00043 60.9781 5.70914 61.0242 5.41779 60.9501C5.19463 60.8925 4.9157 60.8513 4.66155 60.8036C4.85371 60.6785 5.2133 60.583 5.49225 60.4727C5.7464 60.3723 5.75246 60.374 6.43433 60.2966C6.75667 60.2604 6.86826 60.0743 6.59551 60.02C6.26697 59.9542 5.91991 59.8933 5.58517 59.8307C5.29382 59.8357 4.99634 59.8801 4.71739 59.806C4.50043 59.7501 4.25243 59.7122 3.8929 59.7336C3.28541 59.7698 2.66554 59.7879 2.05186 59.8176C1.84109 59.8274 1.61167 59.8209 1.51869 59.7649C1.4567 59.7254 1.63648 59.6711 1.84104 59.6595C2.15098 59.6431 2.4299 59.6233 2.58487 59.541C2.73364 59.4587 3.00636 59.434 3.3287 59.4225C3.41549 59.4192 3.51474 59.3994 3.55813 59.3797C3.78129 59.2842 4.02926 59.2019 4.50658 59.2052C4.70494 59.1723 4.81025 59.1311 4.74826 59.0916C4.71107 59.0702 4.58096 59.0422 4.50658 59.0455C3.99207 59.062 3.47759 59.0785 2.97548 59.1081C2.73992 59.1213 2.56006 59.1245 2.41129 59.0751C2.30591 59.0422 2.36169 58.9978 2.56005 58.95C2.73362 58.9089 2.78327 58.8611 2.77087 58.8052C2.73987 58.6751 2.55387 58.6373 1.95878 58.6455C1.53106 58.6521 1.42568 58.6307 1.33269 58.5188C1.3079 58.4924 1.24602 58.4562 1.28941 58.4381C1.55596 58.3262 1.72954 58.1879 2.23165 58.1352C2.43001 58.1155 2.64069 58.1155 2.76466 58.0727C2.88864 58.0299 3.00027 57.9805 3.13045 57.9393C3.29162 57.8899 3.40309 57.8439 3.3287 57.8126C3.20473 57.7566 3.00643 57.7517 2.77707 57.7714C2.57871 57.7879 2.36795 57.7895 2.16339 57.7994C1.79766 57.8175 1.50018 57.7747 1.45679 57.7023C1.33901 57.5113 1.215 57.322 1.10962 57.1311C1.09722 57.108 1.12813 57.0784 1.17772 57.0586C1.35129 56.9895 1.53733 56.9237 1.71709 56.8562C1.92785 56.7788 2.26265 56.7936 2.54779 56.7788C2.95072 56.7574 2.95058 56.759 3.48988 56.601C3.70064 56.5385 4.06639 56.5632 4.28335 56.5072C4.35154 56.4891 4.45692 56.4594 4.43832 56.443C4.41353 56.4216 4.28962 56.4051 4.19663 56.3952C4.10985 56.3854 4.00449 56.3804 3.91151 56.3854C2.78332 56.4331 1.66136 56.4841 0.533168 56.5302C0.341003 56.5385 0.130236 56.5023 0.062049 56.4512C-0.00613831 56.4035 0.0123977 56.3459 0 56.2915C0.179767 56.224 0.38425 56.1615 0.539221 56.0891C0.656999 56.0331 0.793398 56.0084 1.02895 56.0051C1.3389 56.0002 1.64267 55.9804 1.98981 55.9656C2.63449 55.7253 3.26673 55.4734 3.961 55.2331C4.23995 55.136 4.17187 55.0372 4.22766 54.9335C4.28345 54.838 4.69875 54.8528 4.97769 54.8248C5.20085 54.8018 5.27514 54.7491 5.18836 54.7129C5.13877 54.6915 5.02725 54.6668 4.94047 54.6668C4.7359 54.6668 4.53135 54.6816 4.32679 54.6898C4.12222 54.6981 3.88668 54.6931 3.71931 54.7211C3.55814 54.7475 3.4527 54.8034 3.34732 54.8512C3.22954 54.9038 3.07468 54.922 2.83912 54.9253C2.53538 54.9285 2.23165 54.9433 1.92791 54.9549C1.59317 54.8907 1.24596 54.8281 0.923623 54.7606C0.861634 54.7475 0.84917 54.7096 0.855369 54.6849C0.867766 54.6207 0.774808 54.5812 0.570246 54.5499C0.396678 54.5236 0.254092 54.4857 0.0929222 54.4528C0.216899 54.4084 0.353322 54.3656 0.452504 54.3178C0.669464 54.2174 0.942243 54.145 1.41336 54.1483C1.59932 54.0841 1.74805 54.0051 1.98981 53.9606C2.21916 53.9178 2.60971 53.9606 2.78328 53.8635C2.87006 53.8157 3.00031 53.7614 3.16768 53.7417C3.43423 53.7104 3.78136 53.7269 3.93633 53.6347C4.02931 53.582 4.16563 53.5343 4.3454 53.5211C4.54996 53.5063 4.76067 53.503 4.90944 53.4717C4.99003 53.4553 5.07682 53.4289 5.07682 53.4059C5.07682 53.3911 4.95294 53.368 4.86616 53.3581C4.78557 53.3466 4.68007 53.3384 4.58709 53.3417C4.27715 53.3515 3.97341 53.3697 3.66347 53.3795C3.57668 53.3828 3.47753 53.3713 3.38455 53.3614C3.1118 53.3351 3.13036 53.3022 3.34732 53.2429C3.56428 53.1853 3.71933 53.1112 3.8991 53.0437C4.09746 53.0322 4.34538 53.0371 4.48176 53.0059C4.71111 52.9548 4.87224 52.8807 5.05821 52.8165C5.26277 52.8067 5.47352 52.8034 5.66568 52.7853C5.74627 52.7787 5.78349 52.7425 5.85168 52.7211C5.97566 52.6799 6.08112 52.6207 6.24849 52.6009C6.52124 52.5713 6.85597 52.5828 7.01714 52.4923C7.11012 52.4396 7.25264 52.3836 7.42621 52.3803C7.90972 52.3738 8.11429 52.2832 8.36224 52.1976C8.54821 52.1334 8.94495 52.1663 9.14951 52.1021C9.28588 52.061 9.38513 52.0099 9.5215 51.9704C9.57729 51.954 9.69503 51.9458 9.78801 51.9408C10.2963 51.9161 10.8108 51.898 11.3191 51.8717C11.3997 51.8667 11.4741 51.842 11.5361 51.8223C11.6663 51.7795 11.7468 51.7202 11.908 51.6922C12.0691 51.6643 12.2985 51.6643 12.4968 51.656C13.1353 51.6313 13.1849 51.6379 13.4763 51.498C13.7119 51.3844 14.2884 51.4651 14.4806 51.34C14.5922 51.2675 14.7966 51.2083 15.1624 51.2001C15.6769 51.1885 16.1852 51.1573 16.6997 51.1359C17.1584 51.1161 17.1522 51.1161 17.6481 50.963C17.8713 50.8939 18.1999 50.9037 18.4912 50.8906C18.8012 50.8774 19.0863 50.8577 19.2351 50.7754C19.3838 50.6947 19.6565 50.6683 19.9727 50.6568C20.264 50.6453 20.5926 50.6535 20.822 50.5877C21.3799 50.4297 21.3737 50.428 21.7642 50.4115C22.3779 50.3852 22.9916 50.3589 23.6053 50.3309C24.0144 50.3128 24.4421 50.3095 24.8264 50.2733C25.1054 50.2469 25.2293 50.1548 25.4091 50.0906C25.9174 50.0659 26.4257 50.0412 26.934 50.0181C27.6468 49.9852 28.3659 49.9556 29.085 49.9243C29.3949 49.8617 29.4384 49.7235 29.9591 49.7169C30.269 49.7136 30.5728 49.6922 30.8827 49.679C31.3972 49.656 31.9055 49.6263 32.42 49.6148C32.8105 49.6066 32.8786 49.5177 33.0832 49.4617C33.1514 49.442 33.2134 49.414 33.294 49.4091C34.0998 49.363 34.9304 49.3531 35.7177 49.2856C35.7983 49.279 35.8727 49.2444 35.8913 49.2198C35.9037 49.2066 35.7983 49.1819 35.7301 49.1704C35.6495 49.1572 35.5442 49.144 35.4574 49.1473C32.8973 49.2576 30.3372 49.3696 27.7771 49.4799C27.4176 49.4963 27.4176 49.4947 26.5435 49.6757C26.4691 49.6905 26.3823 49.707 26.2893 49.7119C25.8801 49.7317 25.4648 49.7432 25.0619 49.7679C24.7334 49.7877 24.4607 49.7679 24.2252 49.7086C24.0578 49.6658 23.8841 49.6527 23.6734 49.656C23.4378 49.6609 23.2829 49.679 23.1466 49.7235C22.9668 49.7844 22.8738 49.8634 22.4957 49.8799C20.7538 49.9506 19.0118 50.0296 17.2761 50.1054C17.0344 50.0823 16.9166 50.0478 16.9786 50.0066C17.0158 49.9819 17.0902 49.949 17.1646 49.9457C17.8774 49.9111 18.5965 49.8815 19.3094 49.8486C19.4085 49.8436 19.5449 49.8469 19.6007 49.8305C19.8734 49.7564 19.9727 49.6362 20.4872 49.628C20.7848 49.623 21.0885 49.5984 21.3736 49.5753C21.4542 49.5687 21.5286 49.5342 21.5472 49.5095C21.5534 49.4963 21.4542 49.4716 21.3798 49.4601C21.1071 49.4123 20.791 49.47 20.5183 49.4371C20.4253 49.4255 20.295 49.4091 20.2764 49.3893C20.264 49.3712 20.3694 49.3416 20.4438 49.3235C20.512 49.307 20.6049 49.2922 20.6979 49.2872C21.5161 49.2494 22.3345 49.2099 23.1528 49.1802C23.4875 49.1687 23.723 49.1276 23.8718 49.0518C23.9834 48.9959 24.1197 48.9663 24.3305 48.958C25.7624 48.8971 27.1943 48.8296 28.6325 48.7737C28.992 48.7605 29.178 48.7062 29.3268 48.6354C29.4446 48.5794 29.581 48.5597 29.8103 48.5498C31.8621 48.4642 33.9015 48.3687 35.9533 48.2864C36.3315 48.2716 36.4431 48.2008 36.6353 48.1399C36.7035 48.1185 36.7467 48.0922 36.8335 48.079C36.9203 48.0658 37.0319 48.0675 37.1373 48.0642C38.7738 47.9934 40.4104 47.9177 42.0531 47.8518C42.4374 47.837 42.5117 47.7547 42.71 47.6971C42.7782 47.679 42.8402 47.6493 42.9208 47.6444C44.1482 47.5884 45.3755 47.5358 46.6029 47.4814C47.4212 47.4452 48.2394 47.409 49.0576 47.3744C49.4606 47.358 49.4606 47.3563 50.0061 47.1999C50.0681 47.1818 50.1549 47.1604 50.2355 47.1555C52.5911 47.0501 54.9404 46.9497 57.2959 46.846C57.4943 46.8378 57.6368 46.7999 57.736 46.744C57.8352 46.688 57.9779 46.6501 58.1701 46.6419C60.0111 46.5596 61.8521 46.4789 63.6994 46.4016C64.0341 46.3884 64.2696 46.3489 64.4184 46.2748C64.53 46.2188 64.6664 46.1892 64.8771 46.181C66.7182 46.102 68.5593 46.018 70.4066 45.9423C70.7599 45.9275 70.9334 45.8715 71.107 45.8057C71.169 45.7826 71.2186 45.7448 71.293 45.7415C72.2104 45.6954 73.1216 45.6476 74.0452 45.6164C74.4296 45.6032 74.5598 45.5341 74.7148 45.4682C74.8387 45.4155 74.9813 45.3974 75.2169 45.3908C75.7314 45.376 76.2397 45.3481 76.7418 45.3201C76.8162 45.3151 76.9092 45.2789 76.9154 45.2559C76.9278 45.2131 76.7851 45.1834 76.5496 45.1686C74.0948 45.2756 71.634 45.3826 69.1792 45.4896C68.7763 45.5077 68.7763 45.5077 68.2308 45.6641C68.1688 45.6822 68.0819 45.7036 67.9952 45.7086C65.6396 45.8123 63.2903 45.9143 60.9347 46.018C60.7364 46.0263 60.5938 46.0641 60.4946 46.1201C60.3955 46.1761 60.2528 46.2139 60.0606 46.2221C57.8104 46.3209 55.5603 46.4213 53.3039 46.5152C52.9692 46.5283 52.7337 46.5662 52.5849 46.6419C52.4733 46.6979 52.3369 46.7275 52.1262 46.7357C49.9752 46.8279 47.8303 46.925 45.6731 47.0139C45.4561 47.0222 45.2951 46.9744 45.3074 46.93C45.3136 46.9069 45.4065 46.8691 45.4809 46.8658C46.6029 46.8115 47.7188 46.7555 48.847 46.7143C49.2251 46.7012 49.3366 46.6287 49.5288 46.5678C49.5907 46.5464 49.6404 46.5184 49.721 46.5069C49.8077 46.4938 49.9193 46.4954 50.0247 46.4921C52.684 46.3752 55.3434 46.2567 58.0089 46.1464C58.3932 46.13 58.4675 46.0493 58.6659 45.9917C58.734 45.9719 58.7961 45.9423 58.8767 45.939C59.6949 45.8995 60.5131 45.8649 61.3314 45.8304C62.7633 45.7678 64.1952 45.7053 65.6334 45.6427C66.0487 45.6246 66.0487 45.6246 66.5818 45.4699C66.6438 45.4517 66.7306 45.4287 66.8112 45.4254C70.5987 45.2592 74.3863 45.0929 78.1738 44.9283C78.3721 44.9201 78.5147 44.8822 78.6139 44.8262C78.713 44.7719 78.8556 44.7324 79.0478 44.7225C84.168 44.4986 89.2821 44.2748 94.4023 44.0542C94.7371 44.0394 94.9726 44.0048 95.1213 43.9274C95.2267 43.8715 95.3693 43.8418 95.58 43.832C101.209 43.5867 106.837 43.3414 112.472 43.0945C116.259 42.9299 120.047 42.762 123.834 42.6007C124.182 42.5858 124.367 42.5348 124.541 42.4673C124.597 42.4443 124.653 42.4064 124.727 42.4031C125.539 42.362 126.351 42.3241 127.163 42.2862C127.417 42.3307 127.671 42.3735 127.926 42.4179C128.118 42.3554 128.304 42.2912 128.496 42.2286C129.723 42.1809 130.932 42.1068 132.172 42.0838C132.252 42.0821 132.339 42.1134 132.426 42.1299C133.002 42.2336 133.331 42.2253 133.697 42.0871C133.827 42.0377 133.938 41.9932 134.137 41.985C134.751 41.9554 135.371 41.9356 135.978 41.901C136.307 41.8829 136.579 41.8994 136.815 41.9587C136.982 42.0015 137.156 42.0196 137.36 42.0097C138.489 41.9603 139.611 41.9126 140.739 41.8599C140.819 41.8566 140.894 41.8286 140.956 41.8089C141.086 41.7661 141.197 41.72 141.321 41.6755C141.489 41.7035 141.675 41.7249 141.811 41.7611C141.985 41.8039 142.146 41.8039 142.381 41.7924C146.882 41.5932 151.388 41.399 155.889 41.1981C156.273 41.1817 156.44 41.2508 156.701 41.287C156.788 41.3002 156.874 41.3167 156.967 41.32C157.066 41.3233 157.172 41.3134 157.271 41.3084C160.649 41.1603 164.028 41.0138 167.406 40.8656C167.853 40.8459 167.853 40.8459 168.516 40.9479C168.596 40.9611 168.702 40.9759 168.789 40.971C170.326 40.9068 171.863 40.8377 173.394 40.7718C173.593 40.7636 173.76 40.7899 173.94 40.8278C174.293 40.9018 174.318 40.9019 174.578 40.7932C174.702 40.7422 174.832 40.7109 175.037 40.6961C175.26 40.6796 175.44 40.6846 175.613 40.7142C175.861 40.7553 176.041 40.8245 176.419 40.8064C178.056 40.729 179.698 40.6648 181.329 40.5858C181.701 40.5677 181.899 40.6236 182.147 40.6648C182.234 40.6796 182.314 40.7027 182.407 40.7076C182.5 40.7125 182.612 40.701 182.711 40.6961C184.757 40.6072 186.808 40.5199 188.848 40.4245C189.232 40.4064 189.4 40.4771 189.66 40.5134C189.747 40.5265 189.846 40.5496 189.927 40.5463C191.154 40.4953 192.388 40.4409 193.615 40.3866C194.055 40.3668 194.055 40.3685 194.724 40.4689C194.805 40.4821 194.91 40.4952 194.997 40.492C196.429 40.431 197.867 40.3685 199.299 40.3059C199.739 40.2862 199.739 40.2862 201.01 40.3718C201.103 40.3784 201.202 40.3883 201.295 40.385C202.932 40.3142 204.574 40.245 206.211 40.1693C206.539 40.1545 206.812 40.1677 207.048 40.2269C207.215 40.2697 207.389 40.2878 207.593 40.278C209.434 40.1973 211.282 40.1199 213.117 40.0343C213.47 40.0179 213.699 40.0541 213.947 40.1018C214.028 40.1183 214.108 40.1413 214.201 40.1479C214.294 40.1545 214.4 40.1479 214.499 40.143C216.34 40.0623 218.187 39.9866 220.022 39.8993C220.394 39.8812 220.592 39.9372 220.84 39.9784C220.927 39.9932 221.02 40.0228 221.094 40.0212C221.813 39.9932 222.532 39.9685 223.245 39.9273C223.63 39.9043 223.797 39.98 224.057 40.0162C224.144 40.0277 224.243 40.0524 224.324 40.0492C225.861 39.985 227.399 39.9175 228.93 39.8483C229.147 39.8384 229.308 39.8533 229.481 39.8961C229.711 39.9537 229.977 39.9767 230.312 39.9586C231.025 39.9207 231.744 39.8944 232.463 39.8631C232.885 39.845 232.885 39.845 234.174 39.9306C234.267 39.9372 234.366 39.9471 234.459 39.9438C235.686 39.8911 236.92 39.8401 238.141 39.7825C238.47 39.766 238.743 39.7808 238.978 39.8401C239.145 39.8829 239.313 39.901 239.524 39.8911C240.652 39.8417 241.774 39.7924 242.902 39.743C243.311 39.7249 243.72 39.6936 244.129 39.6936C244.427 39.6952 244.644 39.7742 244.91 39.8137C244.985 39.8253 245.109 39.8121 245.208 39.8088C246.64 39.7463 248.078 39.6886 249.504 39.6179C249.876 39.5998 250.074 39.6557 250.322 39.6969C250.409 39.7117 250.502 39.7413 250.576 39.7397C251.091 39.7216 251.599 39.6969 252.113 39.6755C252.727 39.6491 253.347 39.6294 253.954 39.5932C254.45 39.5635 254.636 39.7067 255.033 39.7117C255.337 39.7166 255.647 39.6886 255.95 39.6755C256.564 39.6491 257.178 39.6195 257.792 39.5965C258.008 39.5882 258.176 39.5619 258.244 39.5026C258.257 39.4911 258.151 39.4664 258.083 39.4516C257.259 39.2837 257.258 39.2837 256.428 39.3199C255.913 39.343 255.405 39.366 254.89 39.3858C254.804 39.389 254.705 39.3759 254.618 39.366C254.37 39.338 254.395 39.3051 254.605 39.2458C254.816 39.1866 254.977 39.1142 255.157 39.0467C255.411 39.0895 255.659 39.1322 255.913 39.175C256.118 39.1668 256.323 39.157 256.527 39.1487C257.55 39.1059 258.573 39.0615 259.595 39.022C259.67 39.0187 259.763 39.0516 259.85 39.0681C260.098 39.1158 260.321 39.1569 260.68 39.1388C261.598 39.0911 262.521 39.0565 263.439 39.0154C263.842 38.9973 263.842 38.9973 264.548 39.0993C264.629 39.1109 264.734 39.124 264.821 39.1207C265.745 39.0829 266.662 39.0417 267.586 39.0022C267.784 38.994 267.976 39.0154 268.119 39.0631C268.175 39.0829 268.162 39.1158 268.398 39.3858C269.129 39.6047 269.631 39.5817 270.14 39.5619C270.357 39.5537 270.549 39.5454 270.691 39.5125C270.766 39.4944 270.859 39.4681 270.859 39.4467C270.859 39.4302 270.722 39.4039 270.636 39.4006C270.022 39.3676 269.439 39.4368 268.838 39.4516C268.559 39.4582 268.317 39.4006 268.268 39.3067C268.255 39.2804 268.237 39.2524 268.218 39.2261C268.199 39.1997 268.187 39.1718 268.169 39.1454C267.927 39.1372 267.784 39.1668 267.679 39.2228C267.592 39.2689 267.468 39.3216 267.301 39.3462C267.133 39.3726 266.904 39.3677 266.699 39.3759C266.501 39.3841 266.284 39.4055 266.098 39.394C265.912 39.3808 265.763 39.3331 265.59 39.3034C265.509 39.2886 265.41 39.2672 265.329 39.2705C264.617 39.2985 263.91 39.3265 263.203 39.3627C262.831 39.3825 262.645 39.3133 262.41 39.2705C262.224 39.2376 262.038 39.2458 262.007 39.3216C261.926 39.5026 262.211 39.5783 262.844 39.5438C263.364 39.5141 263.835 39.5092 264.245 39.6212C264.3 39.636 264.431 39.6426 264.511 39.6393C265.019 39.6195 265.521 39.5948 266.03 39.5751C266.123 39.5718 266.222 39.5783 266.309 39.5849C267.573 39.6738 267.573 39.6755 268.001 39.6557C268.206 39.6458 268.404 39.6376 268.385 39.3874C268.776 39.1191 269.396 39.101 269.997 39.0615C270.388 39.0368 270.555 39.1092 270.809 39.1471C270.896 39.1602 270.989 39.1866 271.07 39.1833C272.402 39.129 273.729 39.0713 275.055 39.0104C275.279 39.0006 275.44 39.0104 275.613 39.0532C275.836 39.1076 276.084 39.1421 276.438 39.1224C277.144 39.0829 277.863 39.0582 278.582 39.0253C278.948 39.0088 278.948 39.0088 279.686 39.1108C279.766 39.1224 279.872 39.1355 279.959 39.1322C280.678 39.1043 281.391 39.0697 282.104 39.0401C282.302 39.0318 282.482 39.0549 282.637 39.0993C282.792 39.1438 282.978 39.1668 283.17 39.1586C283.889 39.129 284.602 39.096 285.314 39.0664C285.401 39.0631 285.507 39.0746 285.587 39.0862C286.343 39.1882 286.343 39.1882 286.691 39.1717C287.199 39.1471 287.72 39.1355 288.222 39.1026C288.711 39.0697 288.966 39.1652 289.3 39.2178C290.218 39.18 291.141 39.1487 292.053 39.1026C292.424 39.0829 292.623 39.1372 292.871 39.18C292.958 39.1948 293.044 39.2261 293.125 39.2244C293.435 39.2179 293.739 39.1997 294.043 39.1866C294.346 39.1734 294.656 39.1602 294.96 39.1471C295.307 39.1948 295.536 39.3067 296.032 39.2689C296.33 39.2458 296.646 39.2409 296.95 39.2277C297.253 39.2146 297.563 39.2014 297.867 39.1882C298.072 39.18 298.282 39.175 298.481 39.1602C298.847 39.1355 299.026 39.2162 299.287 39.2524C299.374 39.264 299.473 39.2837 299.553 39.2804C300.167 39.2574 300.787 39.2376 301.388 39.1997C301.853 39.1701 302.169 39.2195 302.498 39.2886C302.566 39.3035 302.684 39.3117 302.77 39.3084C303.489 39.2804 304.202 39.2458 304.915 39.2162C305.107 39.208 305.293 39.2343 305.448 39.2771C305.61 39.3215 305.789 39.343 305.988 39.3347C306.7 39.3051 307.42 39.2722 308.133 39.2425C308.219 39.2392 308.325 39.2524 308.405 39.2656C309.099 39.3676 309.099 39.3693 309.509 39.3495C309.608 39.3446 309.713 39.3413 309.812 39.3364C310.321 39.3133 310.848 39.3051 311.343 39.2656C311.914 39.2211 312.329 39.2771 312.732 39.3709C313.24 39.3512 313.761 39.3397 314.257 39.3067C314.629 39.2821 314.827 39.3446 315.075 39.3858C315.162 39.4006 315.255 39.4302 315.329 39.4269C316.048 39.3989 316.767 39.3742 317.474 39.3331C317.858 39.31 318.026 39.3841 318.286 39.422C318.373 39.4351 318.466 39.4582 318.546 39.4549C318.956 39.4417 319.365 39.422 319.774 39.4039C320.251 39.3825 320.251 39.3841 320.883 39.4845C321.181 39.5323 321.479 39.4944 321.77 39.4829C322.08 39.4697 322.371 39.4598 322.619 39.5273C322.774 39.5701 322.96 39.5965 323.152 39.5899C323.561 39.5751 323.977 39.5602 324.38 39.5356C324.702 39.5158 324.981 39.529 325.216 39.5899C325.384 39.6327 325.557 39.6541 325.762 39.6442C326.679 39.6047 327.603 39.5635 328.52 39.5257C328.601 39.5224 328.713 39.5372 328.787 39.552C328.961 39.5816 329.128 39.6146 329.295 39.6475C329.698 39.6327 330.114 39.6261 330.51 39.6031C330.932 39.58 331.316 39.5718 331.645 39.6623C331.713 39.6821 331.812 39.71 331.893 39.7084C332.203 39.7018 332.506 39.6853 332.81 39.6722C333.114 39.659 333.424 39.6458 333.727 39.6327C334.081 39.6738 334.304 39.7923 334.8 39.7545C335.098 39.7314 335.414 39.7265 335.717 39.7133C336.021 39.7002 336.331 39.6853 336.635 39.6738C336.734 39.6705 336.846 39.6623 336.932 39.6689C337.025 39.6755 337.106 39.6985 337.186 39.715C337.434 39.7627 337.664 39.8105 338.017 39.7825C338.315 39.7594 338.631 39.7545 338.935 39.7397C339.35 39.7216 339.35 39.7216 340.038 39.8253C340.317 39.8681 340.633 39.8121 340.9 39.8483C341.079 39.873 341.234 39.9142 341.408 39.9421C341.482 39.9537 341.6 39.9586 341.687 39.9553C342.096 39.9405 342.511 39.9257 342.914 39.901C343.243 39.8812 343.516 39.901 343.745 39.9603C343.912 40.0031 344.08 40.0212 344.29 40.0113C345.313 39.9652 346.336 39.9257 347.353 39.8747C347.7 39.8565 347.979 39.8845 348.171 39.9438C348.499 40.0459 348.964 39.9257 349.305 40.008C349.516 40.059 349.727 40.1183 350.111 40.0936C350.818 40.0508 351.537 40.0277 352.25 39.9981C352.504 40.0426 352.758 40.087 353.018 40.1315C353.427 40.1133 353.837 40.0952 354.246 40.0788C354.549 40.0656 354.859 40.0508 355.163 40.0393C355.262 40.036 355.368 40.0294 355.461 40.0376C355.554 40.0458 355.628 40.0673 355.715 40.0837C356.143 40.1644 356.142 40.166 356.849 40.1331C357.153 40.1183 357.444 40.1084 357.698 40.1743C357.934 40.2352 358.213 40.2467 358.535 40.2286C359.143 40.1957 359.757 40.171 360.376 40.1479C360.569 40.1397 360.748 40.1677 360.909 40.2105C361.151 40.278 361.449 40.2714 361.753 40.2533C362.155 40.2302 362.552 40.2072 362.893 40.2994C362.961 40.3191 363.067 40.3471 363.141 40.3454C363.649 40.3323 364.164 40.3224 364.66 40.2911C365.156 40.2599 365.397 40.3619 365.738 40.4113C366.247 40.3899 366.761 40.3685 367.269 40.3471C367.369 40.3422 367.486 40.3273 367.573 40.3356C367.939 40.3701 368.15 40.4936 368.652 40.4557C368.943 40.4343 369.259 40.4278 369.563 40.4228C369.644 40.4212 369.749 40.4491 369.805 40.4705C369.836 40.4821 369.805 40.5133 369.768 40.5298C369.656 40.5759 369.52 40.6187 369.42 40.6665C369.408 40.673 369.526 40.7027 369.594 40.7158C369.761 40.7455 369.954 40.7405 370.177 40.7274C370.369 40.7158 370.567 40.7389 370.704 40.7883C370.759 40.808 370.741 40.8409 370.623 40.9496C370.623 41.0302 370.753 40.994 370.797 40.9413C370.865 40.8656 370.735 40.8409 370.487 40.8821C370.313 40.9117 370.226 40.9545 370.27 40.9891C370.295 41.0072 370.412 41.0302 370.623 40.9496C371.168 40.8508 371.578 40.8327 371.987 40.8146C372.092 40.8097 372.216 40.7932 372.291 40.8031C372.557 40.8426 372.805 40.8903 373.065 40.9348C373.363 40.9249 373.642 40.9002 373.933 40.9644C374.342 41.0549 374.361 41.0467 374.758 41.0286C374.962 41.0187 375.167 41.0105 375.371 41.0023C375.576 40.994 375.737 41.0187 375.917 41.0566C376.283 41.134 376.314 41.1339 376.555 41.0286C376.698 40.9644 376.797 40.943 376.977 40.9726C377.572 41.073 377.578 41.0796 378.086 41.05C378.508 41.0253 378.905 41.0187 379.215 41.1125C379.425 41.1784 379.494 41.1636 379.661 41.0944C380.107 40.9117 380.312 40.915 381.149 41.0467C381.539 41.1092 381.942 41.0418 382.339 41.0335C382.674 41.0269 382.909 41.0664 382.934 41.1702C382.953 41.2344 383.008 41.2805 383.232 41.3019C383.318 41.3101 383.424 41.3216 383.51 41.3183C384.025 41.2986 384.533 41.2755 385.048 41.2525C385.308 41.2409 385.451 41.1636 385.401 41.0615C385.345 40.9529 385.444 40.9134 385.816 40.8821C386.04 40.864 386.219 40.8673 386.399 40.8969C386.598 40.9298 386.542 40.9595 386.368 41.0187C385.953 41.1636 386.002 41.2525 386.536 41.3529C386.721 41.3874 386.87 41.4187 386.914 41.4698C386.938 41.4961 386.914 41.5307 386.969 41.5504C387.273 41.6607 387.695 41.7315 388.166 41.7842C388.618 41.7397 388.928 41.8138 389.275 41.8731C389.548 41.9191 389.87 41.8797 390.162 41.8632C390.49 41.8451 390.763 41.8582 390.999 41.9192C391.166 41.962 391.34 41.9817 391.544 41.9735C391.953 41.9554 392.369 41.9438 392.771 41.9175C393.119 41.8945 393.379 41.9274 393.596 41.9834C393.869 42.0541 394.173 42.0064 394.458 42.0163C394.842 42.0278 395.034 42.1743 395.536 42.1348C395.834 42.1117 396.144 42.1035 396.454 42.0969C396.534 42.0953 396.633 42.1233 396.702 42.143C397.03 42.2336 397.415 42.2286 397.836 42.2023C398.127 42.1842 398.412 42.1677 398.698 42.2303C399.169 42.3356 399.69 42.4278 400.185 42.5249C400.254 42.6007 400.204 42.6895 400.557 42.734C400.743 42.757 400.917 42.7916 401.059 42.8295C401.233 42.8739 401.394 42.8854 401.617 42.8739C402.02 42.8509 402.442 42.8459 402.839 42.8163C403.204 42.79 403.434 42.8443 403.657 42.8953C403.836 42.9365 404.004 42.9562 404.221 42.9266C404.444 42.8986 404.605 42.9167 404.785 42.9611C405.039 43.0221 405.058 43.0155 405.901 43.0336C405.988 43.0352 406.093 43.0599 406.142 43.0813C406.167 43.0928 406.112 43.1258 406.068 43.1422C406.012 43.162 405.925 43.185 405.845 43.19C404.927 43.2328 404.004 43.2706 403.086 43.3134C402.993 43.3184 402.894 43.3299 402.826 43.3464C402.752 43.3645 402.659 43.3891 402.659 43.4122C402.659 43.4286 402.783 43.4484 402.869 43.4599C403.142 43.4978 403.465 43.4402 403.731 43.483C403.911 43.511 404.06 43.5505 404.239 43.5768C404.314 43.5883 404.432 43.5867 404.525 43.5834C404.835 43.5719 405.138 43.5554 405.448 43.5455C405.535 43.5439 405.634 43.5604 405.715 43.5735C406.31 43.6723 406.31 43.6723 406.824 43.6509C407.029 43.6427 407.246 43.618 407.438 43.6278C407.624 43.6377 407.785 43.6822 407.953 43.7101C408.3 43.7694 408.628 43.827 408.653 43.9554C408.665 44.0048 408.87 44.0476 409.074 44.0509C409.273 44.0542 409.484 44.0361 409.688 44.0262C410.172 44.0065 410.172 44.0065 410.798 44.1069C410.971 44.1349 411.157 44.1381 411.38 44.1217C411.467 44.1151 411.573 44.1217 411.666 44.1299C411.969 44.1546 411.969 44.1859 411.771 44.2451C411.492 44.3324 411.517 44.3406 412.298 44.4147C412.595 44.4427 412.825 44.4954 413.073 44.5415C413.476 44.6155 413.47 44.6155 413.203 44.7126C413.141 44.734 413.085 44.7571 413.023 44.7801C412.843 44.8443 412.701 44.9135 412.329 44.9201C411.92 44.9266 411.511 44.953 411.102 44.9711C410.705 44.9892 410.599 45.0287 410.637 45.1406C410.68 45.2756 410.761 45.2904 411.474 45.2888C411.678 45.2888 411.858 45.3019 412.013 45.3464C411.938 45.3991 411.802 45.4402 411.604 45.4501C411.095 45.4748 410.581 45.4962 410.073 45.5176C409.663 45.5357 409.254 45.5538 408.845 45.5719C408.591 45.5834 408.43 45.669 408.498 45.7645C408.535 45.8188 408.566 45.8732 408.597 45.9275C408.665 46.0361 408.796 46.0641 409.211 46.0592C409.316 46.0575 409.415 46.0444 409.515 46.0476C409.918 46.0592 410.11 46.1958 410.593 46.1678C410.996 46.1448 411.418 46.1398 411.814 46.1102C412.18 46.0839 412.385 46.1431 412.639 46.1876C412.726 46.2024 412.819 46.2337 412.893 46.232C413.408 46.2139 413.922 46.1958 414.424 46.1645C414.66 46.1514 414.802 46.1612 414.988 46.2007C415.435 46.2962 415.447 46.2913 416.11 46.2617C416.594 46.2386 416.6 46.2419 417.22 46.3423C417.393 46.3703 417.579 46.3703 417.803 46.3571C418.094 46.3407 418.398 46.3143 418.701 46.339C418.794 46.3456 418.912 46.3654 418.943 46.3868C418.962 46.4016 418.875 46.4378 418.801 46.4493C418.255 46.5349 417.617 46.5201 417.021 46.5547C416.835 46.5645 416.649 46.5333 416.494 46.4888C416.333 46.4444 416.16 46.4263 415.949 46.4345C415.54 46.4526 415.125 46.4641 414.722 46.4905C414.375 46.5135 414.133 46.4756 413.891 46.4246C413.81 46.4082 413.717 46.3769 413.637 46.3785C412.719 46.4114 411.796 46.4444 410.885 46.4905C410.519 46.5102 410.308 46.4576 410.06 46.4131C409.973 46.3983 409.887 46.367 409.806 46.3687C409.496 46.3752 409.192 46.3933 408.882 46.4065C407.754 46.4559 406.632 46.5053 405.504 46.5514C405.43 46.5547 405.337 46.5201 405.25 46.5053C405.082 46.4756 404.909 46.4477 404.735 46.4197C404.425 46.4328 404.122 46.4493 403.812 46.4592C403.589 46.4658 403.39 46.4888 403.359 46.5514C403.341 46.5925 403.545 46.6304 403.762 46.6271C403.973 46.6238 404.184 46.604 404.357 46.6254C405.219 46.7308 405.219 46.7324 405.758 46.711C406.229 46.6913 406.18 46.6748 406.595 46.7654C406.775 46.8049 406.936 46.8279 407.141 46.818C407.649 46.795 408.163 46.772 408.678 46.7522C408.758 46.7489 408.864 46.7654 408.944 46.7785C409.552 46.8773 409.552 46.8806 410.054 46.8559C410.711 46.8263 410.736 46.818 411.176 46.9185C411.48 46.9876 411.759 46.9399 412.05 46.9366C412.385 47.0008 412.75 47.0584 413.054 47.1308C413.414 47.2164 413.792 47.2016 414.201 47.1769C414.505 47.1588 414.802 47.1522 415.05 47.2197C415.286 47.2822 415.571 47.2888 415.893 47.2724C416.185 47.2576 416.482 47.2263 416.786 47.2625C416.867 47.2724 416.99 47.2971 416.984 47.3119C416.978 47.3349 416.897 47.3679 416.817 47.3777C416.247 47.4452 415.621 47.4436 415.019 47.4749C414.939 47.4798 414.833 47.4617 414.753 47.4485C414.579 47.4189 414.412 47.3843 414.244 47.353C413.941 47.3629 413.631 47.3662 413.333 47.386C413.104 47.4008 412.93 47.3991 412.763 47.3596C412.608 47.3234 412.441 47.279 412.255 47.2674C412.069 47.2559 411.852 47.2806 411.647 47.2905C411.443 47.3004 411.207 47.2954 411.046 47.3218C410.885 47.3481 410.785 47.4057 410.68 47.4518C410.562 47.5028 410.401 47.5193 410.165 47.5242C409.949 47.5292 409.775 47.5226 409.614 47.4765C409.546 47.4567 409.453 47.4419 409.36 47.4288C409.273 47.4172 409.174 47.3991 409.093 47.4024C408.169 47.4403 407.252 47.4814 406.328 47.521C405.87 47.5407 405.876 47.5407 404.921 47.4436C404.835 47.4353 404.729 47.4238 404.642 47.4271C404.128 47.4469 403.62 47.4699 403.105 47.493C402.584 47.516 402.591 47.5127 401.704 47.409C401.543 47.3893 401.307 47.4156 401.115 47.4123C400.712 47.4041 400.514 47.2658 400.043 47.2921C399.64 47.3152 399.218 47.3201 398.815 47.3497C398.45 47.3761 398.239 47.3185 397.991 47.274C397.904 47.2592 397.811 47.2263 397.737 47.2296C396.813 47.2658 395.896 47.3069 394.668 47.3119C394.365 47.3119 394.501 47.3465 394.699 47.358C394.985 47.3761 395.078 47.3415 394.923 47.2757C394.811 47.2296 394.65 47.2065 394.52 47.218C394.451 47.2246 394.365 47.2559 394.668 47.3119C394.991 47.3744 394.972 47.409 395.028 47.4288C395.164 47.4765 395.357 47.4962 395.555 47.4897C395.865 47.4781 396.169 47.4617 396.479 47.4518C396.565 47.4485 396.671 47.46 396.751 47.4732C397.433 47.5753 397.439 47.5819 398.165 47.5424C398.394 47.5308 398.561 47.5308 398.741 47.5621C398.989 47.6049 399.169 47.6773 399.547 47.6543C400.049 47.623 400.564 47.6049 401.078 47.5868C401.159 47.5835 401.245 47.6131 401.338 47.6263C401.592 47.6658 401.778 47.7399 402.157 47.7086C402.448 47.6839 402.764 47.6773 403.074 47.6724C403.155 47.6707 403.279 47.6971 403.316 47.7185C403.39 47.7563 403.297 47.8008 403.086 47.8321C403 47.8452 402.882 47.8419 402.783 47.8469C402.374 47.865 401.964 47.8847 401.555 47.8995C401.338 47.9078 401.134 47.9325 401.109 47.9934C401.09 48.0345 401.314 48.0707 401.524 48.0675C401.834 48.0625 402.144 48.0494 402.442 48.028C402.969 47.9917 403.427 48.0016 403.855 48.1053C404.159 48.1777 404.14 48.1514 404.463 48.3654C404.543 48.4197 404.785 48.4247 404.996 48.4214C405.504 48.4131 405.74 48.4378 405.696 48.4889C405.64 48.5514 405.461 48.5712 405.231 48.5794C404.822 48.5926 404.413 48.614 404.004 48.6321C403.905 48.637 403.793 48.6469 403.7 48.6436C403.607 48.6403 403.52 48.6206 403.44 48.6057C403.266 48.5745 403.117 48.5267 402.931 48.5152C402.746 48.5037 402.529 48.5284 402.324 48.5382C402.119 48.5465 401.902 48.5712 401.717 48.5596C401.531 48.5481 401.376 48.4988 401.208 48.4691C401.128 48.4543 401.028 48.4312 400.948 48.4329C400.539 48.4461 400.13 48.4675 399.721 48.4839C399.218 48.5053 399.218 48.5053 398.611 48.4033C398.437 48.3736 398.258 48.3753 398.028 48.3885C397.532 48.4148 397.526 48.4099 396.621 48.3144C396.534 48.3045 396.429 48.293 396.342 48.2979C395.418 48.3358 394.501 48.3769 393.584 48.4164C392.796 48.451 392.796 48.451 392.362 48.6156C392.04 48.7374 392.034 48.7374 392.35 48.7934C392.604 48.8395 392.833 48.907 393.112 48.9317C393.373 48.9547 393.695 48.8807 393.98 48.9564C394.123 48.9942 394.309 49.0354 394.489 49.042C394.774 49.0502 395.078 49.0025 395.35 49.0749C395.487 49.1111 395.691 49.149 395.865 49.1506C396.169 49.1539 396.479 49.1276 396.782 49.116C396.875 49.1128 396.981 49.1128 397.067 49.121C397.16 49.1309 397.241 49.1506 397.321 49.1671C397.569 49.2231 397.836 49.2494 398.158 49.2214C398.685 49.1753 399.156 49.1984 399.566 49.3037C399.621 49.3185 399.758 49.3202 399.844 49.3136C400.068 49.2971 400.26 49.2955 400.427 49.3268C400.495 49.3399 400.594 49.363 400.582 49.3778C400.563 49.4025 400.489 49.4354 400.409 49.4436C399.826 49.4996 399.2 49.5062 398.598 49.5358C398.518 49.5391 398.419 49.5177 398.338 49.5029C398.165 49.4732 398.016 49.4239 397.83 49.4124C397.644 49.4008 397.427 49.4222 397.222 49.4305C397.018 49.4387 396.801 49.4634 396.615 49.4535C396.429 49.442 396.255 49.4008 396.107 49.3646C395.933 49.3235 395.766 49.3185 395.536 49.335C395.239 49.3564 394.929 49.3597 394.625 49.3712C394.458 49.3399 394.29 49.3053 394.117 49.2757C394.036 49.2609 393.937 49.2428 393.85 49.2444C393.441 49.2576 393.032 49.2774 392.623 49.2955C392.214 49.3136 392.214 49.3136 391.519 49.2115C391.439 49.2 391.333 49.1868 391.247 49.1901C390.732 49.2099 390.224 49.2346 389.709 49.2543C389.511 49.2625 389.331 49.2395 389.17 49.1951C389.015 49.1506 388.829 49.1259 388.637 49.1341C387.819 49.1687 387 49.2016 386.182 49.2428C385.854 49.2593 385.575 49.2444 385.351 49.1852C385.091 49.1177 384.8 49.1342 384.496 49.1473C383.808 49.1803 383.802 49.1786 383.362 49.0946C383.275 49.0782 383.188 49.0469 383.108 49.0485C382.395 49.0732 381.676 49.0963 380.969 49.1358C380.597 49.1572 380.399 49.0996 380.151 49.0568C380.064 49.042 379.971 49.0107 379.897 49.014C379.382 49.0321 378.867 49.0486 378.365 49.0815C377.863 49.1144 377.671 48.9613 377.293 48.963C376.778 48.9646 376.27 49.0025 375.762 49.0255C375.353 49.0436 374.944 49.0617 374.535 49.0798C374.125 49.0979 373.716 49.1127 373.307 49.1341C373.09 49.1457 372.929 49.1309 372.749 49.0897C372.52 49.0354 372.247 48.9926 371.999 48.9432C371.621 48.8724 371.621 48.8724 371.162 48.8922C371.063 48.8971 370.958 48.9004 370.859 48.9053C370.109 48.9415 370.109 48.9383 369.154 48.8346C369.111 48.8296 368.999 48.8477 368.956 48.8609C368.825 48.9037 368.708 48.9498 368.59 48.9942C368.423 48.9679 368.218 48.9531 368.106 48.9152C367.79 48.8082 367.294 48.9547 366.972 48.8494C366.854 48.8099 366.65 48.7753 366.464 48.7654C366.271 48.7555 366.054 48.7786 365.856 48.7885C365.342 48.8132 365.342 48.8115 364.901 48.958C364.678 49.0305 364.356 49.0173 364.065 49.0337C363.761 49.0518 363.47 49.0617 363.215 48.9942C362.986 48.9333 362.707 48.9185 362.379 48.9383C361.976 48.963 361.56 48.9778 361.151 48.9926C361.064 48.9959 360.959 48.9876 360.872 48.9778C359.924 48.8807 359.924 48.879 359.465 48.9004C359.26 48.9103 359.05 48.9136 358.851 48.9284C358.517 48.9547 358.263 48.9202 358.021 48.8675C357.94 48.851 357.847 48.8198 357.767 48.8214C357.357 48.8296 356.955 48.8444 356.552 48.8593C356.242 48.8708 355.932 48.8774 355.634 48.9004C355.138 48.9383 354.897 48.8313 354.556 48.7819C354.047 48.8033 353.533 48.8181 353.025 48.8477C352.789 48.8609 352.634 48.856 352.454 48.8165C352.225 48.7671 352.014 48.7111 351.642 48.7358C351.146 48.7687 350.626 48.7802 350.117 48.8C349.776 48.749 349.528 48.6452 349.039 48.6831C348.741 48.7062 348.425 48.7111 348.121 48.7243C347.712 48.7424 347.303 48.7588 346.894 48.7786C346.454 48.7984 346.46 48.7934 345.784 48.6963C345.394 48.6387 344.991 48.7029 344.594 48.7127C344.284 48.721 344.129 48.7967 344.204 48.8938C344.278 48.9909 344.111 49.0667 343.825 49.0798C343.113 49.1111 342.393 49.144 341.681 49.172C341.594 49.1753 341.488 49.1638 341.408 49.1523C340.645 49.0485 340.645 49.0502 340.304 49.065C339.796 49.0897 339.275 49.1029 338.773 49.1341C338.426 49.1555 338.172 49.121 337.949 49.065C337.775 49.0222 337.614 49.0123 337.391 49.0222C334.936 49.1325 332.481 49.2346 330.033 49.3482C329.667 49.3646 329.457 49.3169 329.209 49.2724C329.122 49.2576 329.041 49.2263 328.954 49.2263C328.75 49.2263 328.545 49.2412 328.341 49.251C327.423 49.2905 326.506 49.3383 325.582 49.3679C325.192 49.3811 325.086 49.4568 324.919 49.5194C324.789 49.5671 324.64 49.5868 324.411 49.5934C324.188 49.6 324.026 49.5918 323.853 49.549C323.63 49.493 323.375 49.4584 323.028 49.4815C322.625 49.5078 322.216 49.5194 321.801 49.5375C321.59 49.5457 321.429 49.5753 321.361 49.6346C321.348 49.6445 321.479 49.6692 321.553 49.684C321.801 49.7334 322.036 49.791 322.315 49.8255C322.601 49.8601 322.91 49.8206 323.208 49.8107C323.313 49.8074 323.413 49.7975 323.512 49.7992C323.605 49.8008 323.716 49.8091 323.785 49.8239C324.107 49.898 324.448 49.949 324.894 49.9045C325.278 49.9259 325.477 50.0626 325.967 50.0264C326.264 50.005 326.574 49.9951 326.884 49.9869C326.965 49.9852 327.051 50.0148 327.138 50.0297C327.386 50.0708 327.584 50.1366 327.956 50.1087C328.353 50.079 328.775 50.0741 329.178 50.0511C329.401 50.0379 329.562 50.0494 329.735 50.0922C329.959 50.1465 330.213 50.1877 330.56 50.1613C330.857 50.1383 331.174 50.1333 331.477 50.1185C331.874 50.1004 331.874 50.1021 332.581 50.2041C332.661 50.2157 332.767 50.2288 332.853 50.2255C333.368 50.2058 333.876 50.1811 334.391 50.1613C334.589 50.1531 334.781 50.1745 334.918 50.2222C334.973 50.242 334.955 50.2749 334.973 50.3029C333.951 50.3474 332.928 50.3852 331.911 50.4395C331.527 50.4609 331.353 50.3934 331.099 50.3556C331.012 50.3424 330.919 50.3144 330.839 50.3177C330.12 50.3457 329.407 50.3753 328.694 50.4115C328.471 50.4231 328.304 50.4165 328.136 50.3687C327.708 50.242 327.188 50.3111 326.704 50.3292C326.332 50.3424 326.215 50.3934 326.258 50.5021C326.314 50.6305 326.537 50.67 327.107 50.647C327.312 50.6387 327.516 50.6272 327.721 50.6206C327.919 50.614 328.099 50.6354 328.26 50.6799C328.415 50.7243 328.601 50.7474 328.793 50.7408C329.202 50.726 329.618 50.7112 330.014 50.6865C330.343 50.6667 330.616 50.6832 330.845 50.7441C331.099 50.8116 331.397 50.7967 331.694 50.7819C332.389 50.749 332.395 50.7507 332.829 50.833C332.915 50.8494 333.002 50.8807 333.083 50.8791C333.796 50.8544 334.515 50.833 335.215 50.7935C335.581 50.7737 335.792 50.8264 336.034 50.8692C336.12 50.884 336.207 50.9169 336.288 50.9136C336.802 50.8955 337.317 50.8774 337.819 50.8461C338.054 50.8313 338.197 50.8412 338.389 50.8807C338.848 50.9778 338.86 50.9745 339.511 50.9432C339.709 50.9334 339.926 50.9153 340.112 50.9284C340.298 50.9416 340.447 50.9894 340.621 51.019C340.701 51.0322 340.8 51.0502 340.887 51.047C341.296 51.0338 341.705 51.014 342.114 50.9959C342.499 50.9778 342.499 50.9795 343.218 51.0815C343.509 51.1243 343.813 51.0881 344.104 51.0749C344.421 51.0601 344.706 51.0601 344.947 51.1243C345.189 51.1885 345.481 51.1852 345.791 51.1721C346.082 51.1589 346.379 51.1227 346.677 51.1671C347.359 51.2692 347.359 51.2708 347.78 51.2511C348.394 51.2231 349.001 51.1968 349.621 51.1721C349.702 51.1688 349.807 51.1885 349.888 51.2017C350.061 51.2313 350.21 51.2807 350.396 51.2922C350.582 51.3054 350.799 51.2856 350.997 51.2758C351.636 51.2445 351.679 51.233 352.107 51.3416C352.467 51.4305 352.913 51.3021 353.248 51.4042C353.44 51.4618 353.7 51.5079 354.06 51.4799C354.357 51.4568 354.667 51.4503 354.977 51.4371C355.467 51.4157 355.467 51.4173 356.087 51.5161C356.167 51.5293 356.273 51.5457 356.353 51.5424C356.762 51.5293 357.178 51.5178 357.575 51.4881C358.039 51.4536 358.337 51.5161 358.684 51.577C358.957 51.6248 359.279 51.5852 359.571 51.5688C359.887 51.5523 360.172 51.5573 360.407 51.6215C360.655 51.6873 360.947 51.6791 361.257 51.6659C361.548 51.6544 361.845 51.6165 362.143 51.6626C362.781 51.7647 362.781 51.7647 363.246 51.7449C363.656 51.7268 364.065 51.7071 364.474 51.6939C364.554 51.6906 364.654 51.712 364.734 51.7268C364.908 51.7564 365.056 51.8058 365.242 51.8174C365.428 51.8289 365.645 51.8075 365.85 51.7992C366.054 51.791 366.271 51.7663 366.457 51.7762C366.643 51.7861 366.817 51.8272 366.966 51.8634C367.139 51.9062 367.3 51.9112 367.536 51.8947C367.834 51.8733 368.143 51.8684 368.447 51.8569C368.615 51.8881 368.788 51.9194 368.949 51.954C369.117 51.9902 369.296 51.9869 369.526 51.9754C370.288 51.9359 370.294 51.9408 370.933 52.0429C371.224 52.089 371.528 52.0511 371.819 52.0396C372.129 52.0264 372.421 52.0198 372.662 52.0857C372.898 52.1482 373.189 52.1564 373.499 52.1367C373.698 52.1235 373.908 52.1153 374.113 52.1104C374.206 52.1087 374.318 52.1153 374.386 52.1285C374.714 52.1976 375.037 52.2602 375.489 52.2157C375.886 52.2289 376.084 52.3639 376.562 52.3375C376.964 52.3145 377.386 52.3095 377.783 52.2799C378.148 52.2536 378.409 52.2997 378.595 52.3573C378.93 52.4593 379.401 52.3211 379.735 52.4215C379.928 52.4791 380.175 52.5252 380.547 52.5005C380.956 52.4742 381.087 52.5087 381.204 52.6124C381.273 52.6717 381.26 52.7194 381.136 52.7655C381.012 52.8133 380.876 52.805 380.678 52.7507C380.448 52.6898 380.176 52.6783 379.847 52.6914C379.525 52.7046 379.326 52.619 379.06 52.5861C378.793 52.5515 378.477 52.6091 378.198 52.5647C377.541 52.461 377.541 52.461 377.095 52.4807C376.791 52.4939 376.475 52.5005 376.177 52.5236C375.824 52.5515 375.595 52.5005 375.353 52.4544C375.266 52.4379 375.179 52.4067 375.105 52.4083C374.392 52.433 373.673 52.4561 372.966 52.4972C372.594 52.5186 372.396 52.4593 372.148 52.4182C372.061 52.4034 371.968 52.3737 371.894 52.377C371.28 52.4001 370.673 52.4297 370.059 52.4577C369.941 52.5021 369.811 52.5449 369.699 52.5927C369.582 52.6421 369.421 52.6635 369.185 52.6618C368.794 52.6618 368.41 52.731 368.02 52.6437C367.617 52.5548 367.586 52.5598 367.195 52.5812C366.699 52.6091 366.172 52.6026 365.707 52.6668C365.627 52.6783 365.54 52.7095 365.54 52.7326C365.534 52.7474 365.664 52.7688 365.745 52.782C366.017 52.8215 366.333 52.7639 366.606 52.805C366.786 52.8314 366.935 52.8709 367.115 52.8989C367.189 52.9104 367.3 52.9087 367.4 52.9071C367.505 52.9054 367.604 52.8939 367.703 52.8956C367.796 52.8972 367.896 52.9071 367.97 52.9219C368.311 52.9845 368.67 53.0421 368.974 53.1162C369.272 53.1886 369.551 53.1392 369.848 53.1359C371.038 53.2511 371.038 53.2528 371.838 53.2166C372.036 53.2083 372.241 53.1985 372.446 53.2001C372.532 53.2001 372.613 53.2297 372.7 53.2462C372.948 53.2956 373.183 53.34 373.53 53.3137C373.828 53.2906 374.144 53.2857 374.448 53.2709C374.857 53.2528 374.857 53.2528 375.551 53.3565C375.725 53.3828 375.911 53.3795 376.134 53.3664C376.326 53.3548 376.524 53.3795 376.661 53.4273C376.716 53.447 376.698 53.4799 376.717 53.5079C376.103 53.5343 375.483 53.5524 374.888 53.5919C374.504 53.6166 374.33 53.5458 374.076 53.5079C373.989 53.4948 373.896 53.4668 373.815 53.4701C373.208 53.4948 372.601 53.5227 371.993 53.5557C371.919 53.559 371.826 53.5968 371.819 53.6199C371.807 53.6627 371.962 53.7038 372.185 53.7022C372.483 53.7005 372.774 53.6725 373.041 53.74C373.264 53.7993 373.543 53.8256 373.871 53.7993C374.07 53.7845 374.28 53.7845 374.479 53.7713C375.006 53.7318 375.483 53.74 375.88 53.852C376.183 53.8816 376.481 53.8536 376.772 53.8388C376.989 53.8273 377.2 53.8158 377.355 53.847C377.684 53.9129 378.006 53.9787 378.458 53.9343C378.948 53.9804 379.32 54.0775 379.729 54.1565C379.921 54.1944 380.07 54.2158 380.293 54.1911C380.386 54.1812 380.498 54.1812 380.597 54.1763C380.802 54.168 381.018 54.1433 381.204 54.1532C381.39 54.1647 381.545 54.2125 381.713 54.2421C381.793 54.2569 381.886 54.2816 381.967 54.28C382.277 54.2717 382.581 54.2553 382.884 54.2421C383.188 54.2306 383.492 54.2191 383.796 54.2075C384.05 54.2503 384.31 54.2931 384.564 54.3359C384.973 54.3178 385.383 54.2997 385.786 54.2833C386.238 54.2635 386.238 54.2652 386.889 54.3672C387.18 54.4133 387.49 54.3837 387.769 54.3623C388.234 54.3277 388.544 54.3903 388.873 54.4561C388.941 54.4693 389.065 54.4775 389.145 54.4709C389.468 54.4479 389.746 54.466 389.982 54.5269C390.149 54.5697 390.317 54.5894 390.521 54.5812C391.234 54.5499 391.947 54.517 392.66 54.489C392.747 54.4857 392.846 54.5005 392.926 54.5137C393.559 54.6141 393.565 54.6191 394.03 54.5927C394.445 54.5697 394.83 54.5598 395.158 54.6503C395.226 54.6701 395.332 54.6981 395.406 54.6964C395.914 54.68 396.429 54.6619 396.931 54.6339C397.16 54.6207 397.322 54.6257 397.501 54.6635C397.731 54.7113 397.935 54.7689 398.313 54.7475C399.361 54.6866 399.367 54.6964 400.607 54.81C400.694 54.8182 400.811 54.8051 400.911 54.7985C401.121 54.782 401.276 54.8051 401.462 54.8429C401.878 54.9285 401.89 54.9236 402.287 54.9055C402.591 54.8907 402.907 54.8874 403.204 54.8627C403.663 54.8265 403.967 54.8907 404.308 54.9516C404.58 54.9993 404.896 54.9598 405.188 54.945C405.504 54.9285 405.789 54.9335 406.025 54.996C406.186 55.0388 406.359 55.0619 406.564 55.0537C407.277 55.024 407.99 54.9911 408.703 54.9615C408.789 54.9582 408.895 54.9713 408.975 54.9829C409.682 55.0849 409.682 55.0899 410.383 55.052C410.606 55.0405 410.792 55.0372 410.959 55.0718C411.12 55.1047 411.294 55.136 411.461 55.1672C411.765 55.1557 412.075 55.1524 412.372 55.1327C412.602 55.1179 412.763 55.1244 412.943 55.159C413.178 55.2035 413.376 55.2808 413.748 55.2429C413.941 55.2248 414.164 55.2298 414.356 55.2133C414.585 55.1919 414.74 55.2051 414.92 55.2479C415.143 55.2989 415.372 55.3516 415.732 55.3253C416.129 55.2956 416.55 55.2907 416.953 55.2676C417.176 55.2545 417.331 55.2676 417.511 55.3104C417.734 55.3648 417.989 55.3993 418.336 55.3779C419.042 55.3368 419.048 55.345 419.736 55.4487C419.91 55.475 420.096 55.4718 420.319 55.4586C420.511 55.4471 420.71 55.4718 420.846 55.5195C420.976 55.5722 420.964 55.6051 420.976 55.6331ZM365.738 40.7866C365.534 40.7948 365.329 40.8047 365.032 40.6615C365.013 40.6368 365.026 40.6072 364.982 40.5858C364.883 40.5413 364.728 40.5101 364.542 40.5051C364.207 40.4985 363.804 40.5545 363.81 40.5973C363.817 40.6335 363.922 40.6648 364.127 40.6944C364.213 40.7059 364.282 40.7257 364.362 40.7389C364.598 40.7767 364.784 40.8508 365.125 40.813C365.063 40.7109 365.094 40.7619 365.125 40.813C365.094 40.8755 365.187 40.92 365.41 40.9381C365.472 40.943 365.565 40.9397 365.614 40.9298C365.807 40.8936 365.838 40.8442 365.695 40.7142C365.67 40.7356 365.689 40.7734 365.745 40.7833C365.8 40.7932 365.937 40.785 366.005 40.7735C366.178 40.7422 366.265 40.701 366.222 40.6665C366.197 40.6483 366.079 40.6253 366.005 40.6253C365.875 40.6253 365.757 40.6615 365.738 40.7866ZM415.862 59.8768C415.41 59.9081 414.889 59.8966 414.437 59.9608C414.356 59.9723 414.275 60.0019 414.269 60.025C414.263 60.0398 414.387 60.0612 414.461 60.0727C414.629 60.0991 414.815 60.0908 415.032 60.0826C415.36 60.0711 415.552 60.1468 415.806 60.1846C415.887 60.1962 415.992 60.2044 416.079 60.2011C416.581 60.1813 417.077 60.16 417.579 60.1369C417.666 60.132 417.759 60.1204 417.834 60.1056C418.081 60.0579 418.057 60.0266 417.815 59.9904C417.548 59.9509 417.338 59.885 417.065 59.8538C416.674 59.8093 416.278 59.8686 415.862 59.8768ZM380.659 61.0785C380.355 61.0917 380.058 61.1048 379.754 61.118C379.655 61.1229 379.549 61.1246 379.456 61.1312C379.264 61.1427 379.122 61.1773 379.029 61.2316C379.171 61.2744 379.345 61.2991 379.537 61.2941C379.841 61.2843 380.138 61.2629 380.442 61.2579C380.771 61.2513 380.963 61.3254 381.217 61.3633C381.297 61.3748 381.397 61.3764 381.49 61.3781C381.948 61.3847 382.227 61.2991 382.141 61.1789C382.079 61.0851 381.843 61.0291 381.558 61.0406C381.26 61.0522 380.957 61.0653 380.659 61.0785ZM417.982 57.4438C418.057 57.4158 418.137 57.3961 418.174 57.3714C418.286 57.2875 418.243 57.2249 418.038 57.159C417.79 57.0784 417.486 57.1327 417.207 57.1409C417.139 57.1426 417.065 57.1772 417.028 57.1986C417.003 57.2134 417.003 57.2447 417.04 57.2529C417.344 57.3187 417.666 57.3796 417.982 57.4438ZM364.207 52.5812C363.91 52.5943 363.606 52.6042 363.308 52.6223C363.234 52.6273 363.166 52.6585 363.122 52.6799C363.042 52.7194 363.129 52.7737 363.383 52.7787C363.674 52.7853 363.978 52.7573 364.282 52.7441C364.666 52.7277 364.895 52.6668 364.753 52.6141C364.616 52.563 364.43 52.5532 364.207 52.5812ZM37.9059 49.0634C38.1043 49.0551 38.3088 49.0486 38.5072 49.037C38.6931 49.0255 38.8358 48.9893 38.9288 48.935C38.7738 48.8922 38.6002 48.8691 38.4081 48.8741C38.1043 48.8839 37.8068 48.8971 37.5093 48.9136C37.3233 48.9234 37.1436 48.9597 37.1002 49.0156C37.0568 49.0584 37.472 49.0831 37.9059 49.0634ZM337.992 48.8099C338.073 48.8247 338.153 48.8543 338.234 48.8543C338.432 48.8543 338.637 48.8444 338.823 48.828C338.904 48.8214 338.965 48.7918 339.003 48.7687C339.027 48.7539 339.021 48.7276 338.984 48.7144C338.804 48.6354 338.085 48.6634 337.967 48.7539C337.955 48.7704 337.986 48.7918 337.992 48.8099ZM318.435 39.7956C318.453 39.822 318.46 39.8483 318.485 39.8747C318.534 39.924 318.67 39.9603 318.869 39.9849C319.024 39.9438 319.104 39.8977 319.098 39.8483C319.092 39.822 319.073 39.7956 319.049 39.7693C318.999 39.7199 318.863 39.6837 318.664 39.659C318.509 39.6985 318.435 39.7446 318.435 39.7956ZM432.308 61.3649C432.252 61.3863 432.196 61.4077 432.134 61.4275C432.302 61.4752 432.457 61.49 432.574 61.4637C432.649 61.4472 432.692 61.4225 432.748 61.4011C432.581 61.3534 432.432 61.3402 432.308 61.3649ZM428.452 61.5888C428.533 61.6036 428.607 61.6234 428.694 61.6332C428.837 61.6497 428.967 61.6217 429.066 61.5625C428.985 61.5476 428.911 61.5279 428.824 61.518C428.682 61.5015 428.551 61.5295 428.452 61.5888ZM430.894 61.2876C430.851 61.3271 430.938 61.36 431.167 61.388C431.223 61.3666 431.297 61.3468 431.335 61.3238C431.397 61.2859 431.291 61.2513 431.068 61.225C431.006 61.2448 430.95 61.2662 430.894 61.2876ZM417.809 59.513C417.765 59.5525 417.852 59.5855 418.081 59.6134C418.137 59.592 418.212 59.5723 418.249 59.5492C418.311 59.5114 418.205 59.4768 417.982 59.4505C417.92 59.4702 417.865 59.4916 417.809 59.513ZM399.981 47.865C399.925 47.8864 399.869 47.9078 399.807 47.9275C399.975 47.9753 400.13 47.9901 400.247 47.9637C400.322 47.9473 400.365 47.9226 400.421 47.9012C400.254 47.8535 400.105 47.8403 399.981 47.865ZM382.903 41.6854C383.052 41.6969 383.176 41.6739 383.281 41.613C383.201 41.5982 383.126 41.5784 383.039 41.5685C382.897 41.5521 382.767 41.5801 382.667 41.6393C382.748 41.6558 382.829 41.6706 382.903 41.6854ZM373.834 41.2986C373.778 41.32 373.723 41.3414 373.661 41.3611C373.828 41.4089 373.983 41.4237 374.101 41.3973C374.175 41.3809 374.218 41.3562 374.274 41.3348C374.107 41.287 373.958 41.2755 373.834 41.2986ZM312.335 39.794C312.28 39.8154 312.224 39.8368 312.162 39.8565C312.329 39.9043 312.484 39.9191 312.602 39.8928C312.676 39.8763 312.72 39.8516 312.775 39.8302C312.608 39.7825 312.459 39.7709 312.335 39.794ZM6.11819 53.1869C6.0376 53.1721 5.95709 53.1573 5.8827 53.1408C5.70294 53.1853 5.64716 53.2264 5.74635 53.2577C5.80833 53.2775 5.90125 53.289 5.98183 53.3038C6.1678 53.2594 6.21117 53.2198 6.11819 53.1869Z" fill="#FFE492"/>
<path d="M240.392 8.8711C239.679 8.90238 238.973 8.94188 238.26 8.96163C237.882 8.97151 237.745 9.04229 237.59 9.10814C237.466 9.16081 237.324 9.17727 237.094 9.18715C235.16 9.26781 233.233 9.35341 231.305 9.43736C231.063 9.41596 230.945 9.3814 231.001 9.34025C231.032 9.31556 231.106 9.28099 231.181 9.27769C232.501 9.21679 233.815 9.15423 235.142 9.10649C235.52 9.09332 235.625 9.02089 235.817 8.96163C235.879 8.94188 235.929 8.91225 236.01 8.90072C236.09 8.88755 236.208 8.88921 236.313 8.88591C238.446 8.79208 240.578 8.69991 242.711 8.60608C242.952 8.62748 243.07 8.66204 243.014 8.7032C242.983 8.72789 242.909 8.76246 242.835 8.76575C242.016 8.80032 241.204 8.83489 240.392 8.8711Z" fill="#FFE492"/>
<path d="M630.707 17.6368C630.385 17.6566 629.976 17.6846 629.641 17.5891C629.48 17.543 629.306 17.5282 629.096 17.5381C628.792 17.5545 628.482 17.5677 628.172 17.5776C628.092 17.5792 627.986 17.5611 627.906 17.5463C627.732 17.5167 627.583 17.4673 627.397 17.4541C627.211 17.4409 626.988 17.4772 626.796 17.4689C626.542 17.4574 626.436 17.413 626.505 17.3718C626.542 17.3488 626.616 17.3158 626.697 17.3109C627.844 17.25 627.85 17.25 628.172 17.3093C628.42 17.3553 628.649 17.4064 629.003 17.3784C629.3 17.3553 629.616 17.3504 629.92 17.3356C630.342 17.3158 630.342 17.3175 631.024 17.4212C631.197 17.4475 631.383 17.4459 631.606 17.4311C631.798 17.4195 631.984 17.4459 632.139 17.4903C632.04 17.5463 631.898 17.5825 631.705 17.5924C631.395 17.6088 631.092 17.6204 630.707 17.6368Z" fill="#FFE492"/>
<path d="M619.296 17.1297C620.077 17.0951 620.864 17.0655 621.645 17.026C621.968 17.0095 622.222 17.0276 622.445 17.0836C622.687 17.1445 622.96 17.1396 623.257 17.128C623.443 17.1215 623.623 17.1478 623.747 17.1939C623.796 17.212 623.784 17.2449 623.802 17.2712C623.121 17.3009 622.433 17.3321 621.745 17.3585C621.664 17.3618 621.565 17.3453 621.49 17.3322C621.323 17.3042 621.18 17.2548 621.001 17.2449C620.616 17.2219 620.232 17.2663 619.841 17.2745C619.656 17.2778 619.476 17.2531 619.352 17.2087C619.302 17.1873 619.314 17.156 619.296 17.1297Z" fill="#FFE492"/>
<path d="M337.034 2.97637C337.846 2.94015 338.658 2.9056 339.47 2.86938C339.712 2.89243 339.824 2.92535 339.774 2.9665C339.743 2.99119 339.669 3.02576 339.594 3.02905C337.97 3.10313 336.346 3.1739 334.728 3.24469C334.487 3.22164 334.375 3.18872 334.425 3.14757C334.456 3.12288 334.53 3.08831 334.604 3.08502C335.41 3.04716 336.222 3.01258 337.034 2.97637Z" fill="#FFE492"/>
<path d="M211.903 12.1236C211.537 12.1269 211.153 12.1878 210.744 12.1417C210.663 12.1335 210.552 12.1072 210.558 12.0923C210.57 12.0677 210.645 12.0364 210.725 12.0265C211.079 11.9853 211.519 11.9804 211.699 11.8652C211.785 11.8059 211.946 11.7862 212.163 11.7747C212.393 11.7615 212.554 11.7664 212.734 11.801C212.969 11.8454 213.168 11.9277 213.54 11.8849C213.558 11.9113 213.601 11.9409 213.583 11.9656C213.564 11.9903 213.484 12.0133 213.409 12.0314C213.341 12.0479 213.248 12.0627 213.161 12.0677C212.752 12.0874 212.343 12.1039 211.903 12.1236Z" fill="#FFE492"/>
<path d="M534.292 11.7929C534.596 11.7797 534.912 11.7732 535.209 11.7501C535.445 11.732 535.594 11.7435 535.78 11.783C536.096 11.8522 536.114 11.8456 536.889 11.8555C536.976 11.8571 537.081 11.8818 537.131 11.9032C537.162 11.9147 537.119 11.946 537.081 11.9625C537.026 11.9839 536.945 12.0118 536.871 12.0118C536.381 12.0168 535.885 12.1139 535.408 12.002C535.166 11.946 534.899 11.9196 534.571 11.9443C534.372 11.9592 534.162 11.9657 533.957 11.9723C533.759 11.9789 533.554 11.9608 533.43 11.9114C533.251 11.839 533.356 11.811 533.678 11.816C533.883 11.8193 534.087 11.8011 534.292 11.7929Z" fill="#FFE492"/>
<path d="M646.64 23.1401C647.031 23.1236 647.421 23.1039 647.818 23.0907C647.898 23.0874 647.998 23.1055 648.072 23.1171C648.37 23.1665 648.326 23.2504 648.339 23.3245C648.345 23.4018 647.657 23.4644 647.365 23.4117C647.043 23.3525 646.752 23.285 646.305 23.3212C646.132 23.3344 645.927 23.3047 645.816 23.257C645.648 23.1878 645.741 23.1599 646.057 23.1648C646.243 23.1681 646.442 23.15 646.64 23.1401Z" fill="#FFE492"/>
<path d="M449.839 0.734345C450.242 0.716238 450.645 0.688267 451.048 0.686621C451.283 0.684975 451.401 0.739287 451.345 0.778794C451.314 0.803486 451.24 0.838056 451.165 0.841348C450.36 0.880855 449.554 0.913783 448.748 0.949998C448.512 0.926952 448.395 0.892389 448.45 0.852882C448.481 0.82819 448.556 0.795267 448.63 0.790328C449.033 0.767282 449.436 0.752453 449.839 0.734345Z" fill="#FFE492"/>
<path d="M638.91 17.7816C639.301 17.7652 639.697 17.7405 640.088 17.7323C640.292 17.729 640.454 17.7668 640.479 17.8096C640.491 17.8294 640.392 17.8639 640.311 17.8722C639.753 17.9281 639.152 17.9347 638.569 17.9627C638.383 17.9709 638.185 17.9446 638.073 17.8985C637.906 17.8277 637.999 17.8014 638.315 17.8063C638.513 17.808 638.712 17.7899 638.91 17.7816Z" fill="#FFE492"/>
<path d="M544.535 12.0151C544.734 12.0068 544.938 11.9854 545.13 11.992C545.335 12.0003 545.465 12.048 545.527 12.0957C545.595 12.1501 545.589 12.2011 545.527 12.2472C545.428 12.3262 545.329 12.3229 545.099 12.2702C544.746 12.1879 544.721 12.1978 544.021 12.2011C543.94 12.2011 543.841 12.1764 543.779 12.155C543.686 12.1221 543.736 12.071 543.953 12.0414C544.114 12.02 544.337 12.0233 544.535 12.0151Z" fill="#FFE492"/>
<path d="M624.385 17.2415C624.676 17.2283 624.968 17.2069 625.259 17.2069C625.464 17.2053 625.625 17.2431 625.644 17.2843C625.65 17.304 625.557 17.3369 625.482 17.3468C625.129 17.3913 624.732 17.3946 624.348 17.4094C624.168 17.416 623.97 17.3896 623.858 17.3435C623.691 17.2744 623.79 17.2431 624.094 17.253C624.187 17.2563 624.286 17.2464 624.385 17.2415Z" fill="#FFE492"/>
<path d="M578.533 15.222C578.1 15.2417 577.69 15.2171 577.721 15.1743C577.765 15.1183 577.944 15.0821 578.13 15.0722C578.428 15.0557 578.726 15.0425 579.029 15.0327C579.221 15.0261 579.395 15.0508 579.55 15.0936C579.457 15.1463 579.314 15.1841 579.129 15.1956C578.936 15.2072 578.732 15.2138 578.533 15.222Z" fill="#FFE492"/>
<path d="M575.692 15.0112C575.983 14.9981 576.274 14.9767 576.566 14.9767C576.77 14.975 576.932 15.0129 576.95 15.054C576.956 15.0738 576.863 15.1067 576.789 15.1166C576.436 15.161 576.039 15.1643 575.655 15.1791C575.475 15.1857 575.276 15.1594 575.165 15.1133C574.997 15.0442 575.097 15.0129 575.4 15.0228C575.493 15.0261 575.593 15.0162 575.692 15.0112Z" fill="#FFE492"/>
<path d="M541.021 12.0022C541.312 11.989 541.604 11.9676 541.895 11.9659C542.099 11.9643 542.261 12.0022 542.279 12.0433C542.285 12.0631 542.193 12.0943 542.118 12.1059C541.765 12.1503 541.368 12.1536 540.984 12.1684C540.804 12.175 540.606 12.1487 540.494 12.1026C540.327 12.0334 540.426 12.0022 540.729 12.012C540.822 12.0153 540.922 12.0055 541.021 12.0022Z" fill="#FFE492"/>
<path d="M539.387 11.9051C539.697 11.8919 539.796 11.8837 539.895 11.8837C540.081 11.8837 540.273 11.9034 540.385 11.9512C540.552 12.0203 540.453 12.0401 540.149 12.0434C539.759 12.0466 539.374 12.0812 538.984 12.0878C538.779 12.0911 538.618 12.0516 538.606 12.0104C538.6 11.9907 538.693 11.9561 538.767 11.9495C539.027 11.9248 539.312 11.91 539.387 11.9051Z" fill="#FFE492"/>
<path d="M573.166 2.22093C572.967 2.22916 572.757 2.2522 572.571 2.24397C572.323 2.23245 572.224 2.18801 572.286 2.14686C572.323 2.12381 572.391 2.09089 572.465 2.08595C572.862 2.06291 573.265 2.04808 573.662 2.03162C573.897 2.05631 574.003 2.09087 573.941 2.13203C573.903 2.15507 573.835 2.18635 573.761 2.19293C573.569 2.2094 573.364 2.21269 573.166 2.22093Z" fill="#FFE492"/>
<path d="M332.588 3.17044C332.78 3.16879 332.954 3.19019 333.102 3.23134C333.009 3.28402 332.873 3.31859 332.687 3.3334C332.594 3.33999 332.489 3.34492 332.39 3.34656C332.197 3.34986 332.024 3.32681 331.875 3.28566C331.968 3.23298 332.111 3.19841 332.29 3.1836C332.383 3.17701 332.489 3.17538 332.588 3.17044Z" fill="#FFE492"/>
<path d="M636.792 17.7751C636.786 17.7274 637.164 17.6731 637.505 17.6747C637.685 17.6764 637.871 17.6994 637.976 17.7439C638.137 17.8114 638.044 17.8377 637.74 17.8327C637.554 17.8294 637.356 17.8574 637.17 17.8525C636.959 17.8508 636.835 17.8146 636.792 17.7751Z" fill="#FFE492"/>
<path d="M546.332 12.2143C546.326 12.1962 546.295 12.1748 546.313 12.1583C546.431 12.0678 547.144 12.0398 547.33 12.1188C547.361 12.1336 547.374 12.1583 547.349 12.1731C547.312 12.1962 547.243 12.2258 547.169 12.2324C546.977 12.2488 546.779 12.2571 546.58 12.2587C546.493 12.2587 546.413 12.2307 546.332 12.2143Z" fill="#FFE492"/>
<path d="M214.108 11.8605C213.376 11.8951 213.364 11.8918 213.494 11.8095C213.612 11.7354 213.829 11.6909 214.145 11.6909C214.238 11.6909 214.337 11.6877 214.418 11.6942C214.504 11.7025 214.628 11.7189 214.647 11.7387C214.684 11.7765 214.579 11.8177 214.393 11.8457C214.312 11.8588 214.207 11.8556 214.108 11.8605Z" fill="#FFE492"/>
<path d="M341.746 2.93851C341.529 2.96649 341.343 2.95662 341.207 2.90394C341.071 2.85127 341.288 2.78871 341.666 2.77389C341.765 2.7706 341.87 2.75744 341.963 2.76403C342.056 2.76896 342.149 2.7887 342.205 2.80846C342.304 2.84138 342.242 2.88584 342.044 2.9237C341.963 2.93851 341.845 2.93521 341.746 2.93851Z" fill="#FFE492"/>
<path d="M635.501 17.6517C635.557 17.6303 635.613 17.6089 635.675 17.5891C635.904 17.6171 636.003 17.65 635.941 17.6879C635.904 17.7109 635.83 17.7307 635.774 17.7521C635.545 17.7241 635.452 17.6895 635.501 17.6517Z" fill="#FFE492"/>
<path d="M223.93 30.5999C223.93 30.5801 224.017 30.5488 224.085 30.5422C224.216 30.5307 224.377 30.5538 224.488 30.5999C224.643 30.6657 224.55 30.7003 224.265 30.6822C224.067 30.669 223.93 30.6361 223.93 30.5999Z" fill="#FFE492"/>
<path d="M548.854 10.6818C548.934 10.6966 549.015 10.7115 549.089 10.7279C548.984 10.7888 548.854 10.8152 548.717 10.7987C548.631 10.7888 548.556 10.7691 548.476 10.7542C548.581 10.6933 548.705 10.6703 548.854 10.6818Z" fill="#FFE492"/>
<path d="M546.709 10.6079C546.833 10.5832 546.982 10.5964 547.156 10.6441C547.1 10.6655 547.05 10.6902 546.982 10.7067C546.864 10.733 546.709 10.7198 546.542 10.6704C546.592 10.6507 546.647 10.6293 546.709 10.6079Z" fill="#FFE492"/>
<path d="M545.067 10.6801C545.148 10.6949 545.229 10.7097 545.303 10.7262C545.198 10.7871 545.074 10.8134 544.931 10.7969C544.844 10.7871 544.77 10.7673 544.689 10.7525C544.795 10.6916 544.919 10.6669 545.067 10.6801Z" fill="#FFE492"/>
<path d="M543.857 10.593C543.95 10.626 543.901 10.6655 543.721 10.7099C543.641 10.6951 543.548 10.6836 543.486 10.6638C543.386 10.6325 543.436 10.5914 543.622 10.5469C543.696 10.5634 543.777 10.5782 543.857 10.593Z" fill="#FFE492"/>
</svg>
